M48
; DRILL file {KiCad 7.0.10+dfsg-1} date Mon 26 Feb 2024 04:50:21 PM EET
; FORMAT={-:-/ absolute / inch / decimal}
; #@! TF.CreationDate,2024-02-26T16:50:21+02:00
; #@! TF.GenerationSoftware,Kicad,Pcbnew,7.0.10+dfsg-1
; #@! TF.FileFunction,Plated,1,2,PTH
FMAT,2
INCH
; #@! TA.AperFunction,Plated,PTH,ViaDrill
T1C0.0157
; #@! TA.AperFunction,Plated,PTH,ViaDrill
T2C0.0276
; #@! TA.AperFunction,Plated,PTH,ComponentDrill
T3C0.0394
%
G90
G05
T1
X2.9724Y-5.2953
X3.0512Y-5.5315
X3.0906Y-4.5571
X3.2087Y-5.7579
X3.3661Y-5.5315
X3.6122Y-5.0689
X3.7205Y-5.5315
X3.878Y-5.315
X4.0118Y-5.0354
X4.0354Y-5.5315
X4.0472Y-4.9882
X4.0758Y-4.938
X4.124Y-4.7835
X4.126Y-4.8858
X4.2913Y-4.5079
X4.2913Y-5.0689
X4.3701Y-5.5315
X4.4606Y-5.0856
X4.4783Y-4.813
X4.4921Y-5.0356
X4.5197Y-4.9856
X4.5276Y-5.5118
X4.5512Y-4.937
X4.6654Y-5.0591
X4.7047Y-5.5315
X5.0394Y-5.5315
X5.1181Y-5.3346
X5.2165Y-4.8031
X5.2165Y-4.9902
X5.2165Y-5.7283
X5.2264Y-5.5118
X5.4213Y-5.5315
X5.7283Y-5.0591
X5.748Y-5.5315
X5.8268Y-5.1969
X5.8543Y-5.0356
X5.8898Y-4.9882
X5.9213Y-4.9409
X5.9252Y-5.5709
X5.9606Y-4.8898
X6.0925Y-5.2657
X6.1024Y-5.5315
X6.1417Y-5.1181
X6.1811Y-5.0984
X6.3091Y-5.0591
X6.3287Y-4.9705
X6.3287Y-5.0197
X6.3583Y-4.8031
X6.437Y-5.5315
X6.4961Y-4.252
X6.5059Y-5.2264
X6.7913Y-5.5315
X6.811Y-4.8031
X7.0866Y-4.5276
X7.0866Y-4.8031
X7.1654Y-5.5315
X7.2835Y-5.0197
X7.3425Y-5.7283
X7.4705Y-5.2264
X7.5Y-5.5315
X7.5886Y-4.6949
X7.6417Y-4.9488
X7.6693Y-4.7165
X7.6722Y-4.9803
X7.6732Y-4.6732
X7.7008Y-5.0157
X7.7362Y-4.5571
X7.7362Y-5.0394
X7.7756Y-5.3346
X7.815Y-5.0886
X7.8425Y-5.5315
X7.874Y-4.4094
X7.8937Y-4.8622
X7.9134Y-4.2717
X7.9331Y-4.6654
X7.9429Y-4.8583
X8.012Y-4.747
X8.0906Y-4.5571
X8.153Y-4.78
X8.1594Y-5.3051
X8.1693Y-5.5315
X8.1791Y-4.4291
X8.1969Y-4.8217
X8.2953Y-5.2756
X8.3307Y-5.248
X8.3661Y-5.1654
X8.4744Y-4.9606
X8.5Y-5.5315
X8.5138Y-5.1476
X8.5965Y-5.0396
X8.625Y-4.9825
X8.6535Y-4.937
X8.6811Y-4.7835
X8.685Y-4.8898
X8.75Y-4.5374
X8.8386Y-5.5315
X8.8583Y-5.0787
X8.9075Y-5.374
X8.9665Y-5.2067
X9.0276Y-5.0866
X9.0551Y-4.8031
X9.0591Y-5.0354
X9.0876Y-4.997
X9.1142Y-4.9409
X9.1535Y-5.5315
X9.2126Y-5.0295
X9.3406Y-5.2953
X9.3602Y-5.7283
X9.5472Y-5.5315
X9.7244Y-5.1378
X9.8819Y-5.5315
X10.2067Y-4.5374
X10.2264Y-5.5315
X10.5709Y-5.5315
X10.9055Y-5.5315
X11.0433Y-5.1378
X11.2992Y-5.2657
X11.2992Y-5.5315
X11.3189Y-4.9705
X11.374Y-5.0354
X11.4173Y-4.9882
X11.4636Y-4.937
X11.4665Y-4.7835
X11.4921Y-4.8898
X11.6339Y-5.5315
X11.6535Y-5.0787
X11.6535Y-5.2657
X11.7618Y-4.5374
X11.7913Y-5.7283
X11.8228Y-5.0866
X11.8543Y-5.0354
X11.8701Y-4.8031
X11.8858Y-4.9882
X11.9134Y-4.9409
X11.9685Y-5.5315
X12.185Y-5.1772
X12.3031Y-5.5315
X12.3622Y-4.7047
X12.4252Y-4.7165
X12.4764Y-4.8543
X12.5394Y-4.6555
X12.5492Y-5.2953
X12.5689Y-5.1181
X12.6181Y-5.5315
X12.6378Y-4.8819
X12.7756Y-4.7146
X12.9134Y-5.2067
X12.9232Y-4.9114
X12.9724Y-5.5315
X13.1299Y-5.7283
X13.1594Y-4.6358
X13.2874Y-5.5315
X13.5138Y-5.5315
X13.6516Y-5.0197
X13.7598Y-5.5315
T2
X4.2913Y-4.7441
X6.1417Y-4.7047
X7.7953Y-4.4882
X7.904Y-5.0394
X7.9857Y-5.0394
X8.8583Y-4.7441
X8.8583Y-4.6063
X11.6437Y-4.7539
X11.6535Y-4.6063
X13.061Y-4.7638
T3
X3.1801Y-4.8
X3.1801Y-4.9
X3.1801Y-5.0
X3.1801Y-5.1
X3.737Y-4.8425
X3.837Y-4.8425
X3.937Y-4.8425
X4.037Y-4.8425
X6.9864Y-4.9113
X6.9864Y-5.0113
X7.0864Y-4.9113
X7.0864Y-5.0113
X7.1864Y-4.9113
X7.1864Y-5.0113
X13.1348Y-4.7998
X13.1348Y-4.8998
X13.1348Y-4.9998
X13.1348Y-5.0998
X13.1348Y-5.1998
M30
