%TF.GenerationSoftware,KiCad,Pcbnew,7.0.10+dfsg-1*%
%TF.CreationDate,2024-02-26T16:50:10+02:00*%
%TF.ProjectId,pss20midi,70737332-306d-4696-9469-2e6b69636164,rev?*%
%TF.SameCoordinates,Original*%
%TF.FileFunction,Profile,NP*%
%FSLAX46Y46*%
G04 Gerber Fmt 4.6, Leading zero omitted, Abs format (unit mm)*
G04 Created by KiCad (PCBNEW 7.0.10+dfsg-1) date 2024-02-26 16:50:10*
%MOMM*%
%LPD*%
G01*
G04 APERTURE LIST*
%TA.AperFunction,Profile*%
%ADD10C,0.100000*%
%TD*%
G04 APERTURE END LIST*
D10*
X341500000Y-107500000D02*
G75*
G03*
X338500000Y-110500000I0J-3000000D01*
G01*
X70000000Y-106000000D02*
X363500000Y-106000000D01*
X363500000Y-150000000D01*
X70000000Y-150000000D01*
X70000000Y-106000000D01*
X338500000Y-110500000D02*
G75*
G03*
X341500000Y-113500000I3000000J0D01*
G01*
X134250000Y-110500000D02*
G75*
G03*
X130750000Y-110500000I-1750000J0D01*
G01*
X130750000Y-110500000D02*
G75*
G03*
X134250000Y-110500000I1750000J0D01*
G01*
X293750000Y-110500000D02*
G75*
G03*
X290250000Y-110500000I-1750000J0D01*
G01*
X290250000Y-110500000D02*
G75*
G03*
X293750000Y-110500000I1750000J0D01*
G01*
X341500000Y-107500000D02*
X343500000Y-107500000D01*
X87000000Y-107500000D02*
X89000000Y-107500000D01*
X87000000Y-107500000D02*
G75*
G03*
X84000000Y-110500000I0J-3000000D01*
G01*
X346500000Y-110500000D02*
G75*
G03*
X343500000Y-107500000I-3000000J0D01*
G01*
X218500000Y-110500000D02*
G75*
G03*
X212500000Y-110500000I-3000000J0D01*
G01*
X212500000Y-110500000D02*
G75*
G03*
X218500000Y-110500000I3000000J0D01*
G01*
X80250000Y-110500000D02*
G75*
G03*
X76750000Y-110500000I-1750000J0D01*
G01*
X76750000Y-110500000D02*
G75*
G03*
X80250000Y-110500000I1750000J0D01*
G01*
X84000000Y-110500000D02*
G75*
G03*
X87000000Y-113500000I3000000J0D01*
G01*
X92000000Y-110500000D02*
G75*
G03*
X89000000Y-107500000I-3000000J0D01*
G01*
X89000000Y-113500000D02*
G75*
G03*
X92000000Y-110500000I0J3000000D01*
G01*
X239250000Y-110500000D02*
G75*
G03*
X235750000Y-110500000I-1750000J0D01*
G01*
X235750000Y-110500000D02*
G75*
G03*
X239250000Y-110500000I1750000J0D01*
G01*
X188750000Y-110500000D02*
G75*
G03*
X185250000Y-110500000I-1750000J0D01*
G01*
X185250000Y-110500000D02*
G75*
G03*
X188750000Y-110500000I1750000J0D01*
G01*
X87000000Y-113500000D02*
X89000000Y-113500000D01*
X343500000Y-113500000D02*
G75*
G03*
X346500000Y-110500000I0J3000000D01*
G01*
X352250000Y-110500000D02*
G75*
G03*
X348750000Y-110500000I-1750000J0D01*
G01*
X348750000Y-110500000D02*
G75*
G03*
X352250000Y-110500000I1750000J0D01*
G01*
X341500000Y-113500000D02*
X343500000Y-113500000D01*
M02*
