%TF.GenerationSoftware,KiCad,Pcbnew,7.0.10+dfsg-1*%
%TF.CreationDate,2024-02-26T16:50:10+02:00*%
%TF.ProjectId,pss20midi,70737332-306d-4696-9469-2e6b69636164,rev?*%
%TF.SameCoordinates,Original*%
%TF.FileFunction,Legend,Top*%
%TF.FilePolarity,Positive*%
%FSLAX46Y46*%
G04 Gerber Fmt 4.6, Leading zero omitted, Abs format (unit mm)*
G04 Created by KiCad (PCBNEW 7.0.10+dfsg-1) date 2024-02-26 16:50:10*
%MOMM*%
%LPD*%
G01*
G04 APERTURE LIST*
%ADD10C,0.100000*%
%ADD11C,0.150000*%
%ADD12C,0.120000*%
G04 APERTURE END LIST*
D10*
X136416667Y-146409800D02*
X136559524Y-146457419D01*
X136559524Y-146457419D02*
X136797619Y-146457419D01*
X136797619Y-146457419D02*
X136892857Y-146409800D01*
X136892857Y-146409800D02*
X136940476Y-146362180D01*
X136940476Y-146362180D02*
X136988095Y-146266942D01*
X136988095Y-146266942D02*
X136988095Y-146171704D01*
X136988095Y-146171704D02*
X136940476Y-146076466D01*
X136940476Y-146076466D02*
X136892857Y-146028847D01*
X136892857Y-146028847D02*
X136797619Y-145981228D01*
X136797619Y-145981228D02*
X136607143Y-145933609D01*
X136607143Y-145933609D02*
X136511905Y-145885990D01*
X136511905Y-145885990D02*
X136464286Y-145838371D01*
X136464286Y-145838371D02*
X136416667Y-145743133D01*
X136416667Y-145743133D02*
X136416667Y-145647895D01*
X136416667Y-145647895D02*
X136464286Y-145552657D01*
X136464286Y-145552657D02*
X136511905Y-145505038D01*
X136511905Y-145505038D02*
X136607143Y-145457419D01*
X136607143Y-145457419D02*
X136845238Y-145457419D01*
X136845238Y-145457419D02*
X136988095Y-145505038D01*
X137321429Y-145457419D02*
X137559524Y-146457419D01*
X137559524Y-146457419D02*
X137750000Y-145743133D01*
X137750000Y-145743133D02*
X137940476Y-146457419D01*
X137940476Y-146457419D02*
X138178572Y-145457419D01*
X138702381Y-145885990D02*
X138607143Y-145838371D01*
X138607143Y-145838371D02*
X138559524Y-145790752D01*
X138559524Y-145790752D02*
X138511905Y-145695514D01*
X138511905Y-145695514D02*
X138511905Y-145647895D01*
X138511905Y-145647895D02*
X138559524Y-145552657D01*
X138559524Y-145552657D02*
X138607143Y-145505038D01*
X138607143Y-145505038D02*
X138702381Y-145457419D01*
X138702381Y-145457419D02*
X138892857Y-145457419D01*
X138892857Y-145457419D02*
X138988095Y-145505038D01*
X138988095Y-145505038D02*
X139035714Y-145552657D01*
X139035714Y-145552657D02*
X139083333Y-145647895D01*
X139083333Y-145647895D02*
X139083333Y-145695514D01*
X139083333Y-145695514D02*
X139035714Y-145790752D01*
X139035714Y-145790752D02*
X138988095Y-145838371D01*
X138988095Y-145838371D02*
X138892857Y-145885990D01*
X138892857Y-145885990D02*
X138702381Y-145885990D01*
X138702381Y-145885990D02*
X138607143Y-145933609D01*
X138607143Y-145933609D02*
X138559524Y-145981228D01*
X138559524Y-145981228D02*
X138511905Y-146076466D01*
X138511905Y-146076466D02*
X138511905Y-146266942D01*
X138511905Y-146266942D02*
X138559524Y-146362180D01*
X138559524Y-146362180D02*
X138607143Y-146409800D01*
X138607143Y-146409800D02*
X138702381Y-146457419D01*
X138702381Y-146457419D02*
X138892857Y-146457419D01*
X138892857Y-146457419D02*
X138988095Y-146409800D01*
X138988095Y-146409800D02*
X139035714Y-146362180D01*
X139035714Y-146362180D02*
X139083333Y-146266942D01*
X139083333Y-146266942D02*
X139083333Y-146076466D01*
X139083333Y-146076466D02*
X139035714Y-145981228D01*
X139035714Y-145981228D02*
X138988095Y-145933609D01*
X138988095Y-145933609D02*
X138892857Y-145885990D01*
D11*
X109988095Y-119454819D02*
X109988095Y-120264342D01*
X109988095Y-120264342D02*
X110035714Y-120359580D01*
X110035714Y-120359580D02*
X110083333Y-120407200D01*
X110083333Y-120407200D02*
X110178571Y-120454819D01*
X110178571Y-120454819D02*
X110369047Y-120454819D01*
X110369047Y-120454819D02*
X110464285Y-120407200D01*
X110464285Y-120407200D02*
X110511904Y-120359580D01*
X110511904Y-120359580D02*
X110559523Y-120264342D01*
X110559523Y-120264342D02*
X110559523Y-119454819D01*
X110988095Y-119550057D02*
X111035714Y-119502438D01*
X111035714Y-119502438D02*
X111130952Y-119454819D01*
X111130952Y-119454819D02*
X111369047Y-119454819D01*
X111369047Y-119454819D02*
X111464285Y-119502438D01*
X111464285Y-119502438D02*
X111511904Y-119550057D01*
X111511904Y-119550057D02*
X111559523Y-119645295D01*
X111559523Y-119645295D02*
X111559523Y-119740533D01*
X111559523Y-119740533D02*
X111511904Y-119883390D01*
X111511904Y-119883390D02*
X110940476Y-120454819D01*
X110940476Y-120454819D02*
X111559523Y-120454819D01*
X105738095Y-131354819D02*
X106404761Y-131354819D01*
X106404761Y-131354819D02*
X105976190Y-132354819D01*
X107214285Y-131688152D02*
X107214285Y-132354819D01*
X106976190Y-131307200D02*
X106738095Y-132021485D01*
X106738095Y-132021485D02*
X107357142Y-132021485D01*
X107738095Y-132354819D02*
X107738095Y-131354819D01*
X107738095Y-131831009D02*
X108309523Y-131831009D01*
X108309523Y-132354819D02*
X108309523Y-131354819D01*
X109357142Y-132259580D02*
X109309523Y-132307200D01*
X109309523Y-132307200D02*
X109166666Y-132354819D01*
X109166666Y-132354819D02*
X109071428Y-132354819D01*
X109071428Y-132354819D02*
X108928571Y-132307200D01*
X108928571Y-132307200D02*
X108833333Y-132211961D01*
X108833333Y-132211961D02*
X108785714Y-132116723D01*
X108785714Y-132116723D02*
X108738095Y-131926247D01*
X108738095Y-131926247D02*
X108738095Y-131783390D01*
X108738095Y-131783390D02*
X108785714Y-131592914D01*
X108785714Y-131592914D02*
X108833333Y-131497676D01*
X108833333Y-131497676D02*
X108928571Y-131402438D01*
X108928571Y-131402438D02*
X109071428Y-131354819D01*
X109071428Y-131354819D02*
X109166666Y-131354819D01*
X109166666Y-131354819D02*
X109309523Y-131402438D01*
X109309523Y-131402438D02*
X109357142Y-131450057D01*
X110309523Y-132354819D02*
X109738095Y-132354819D01*
X110023809Y-132354819D02*
X110023809Y-131354819D01*
X110023809Y-131354819D02*
X109928571Y-131497676D01*
X109928571Y-131497676D02*
X109833333Y-131592914D01*
X109833333Y-131592914D02*
X109738095Y-131640533D01*
X111214285Y-131354819D02*
X110738095Y-131354819D01*
X110738095Y-131354819D02*
X110690476Y-131831009D01*
X110690476Y-131831009D02*
X110738095Y-131783390D01*
X110738095Y-131783390D02*
X110833333Y-131735771D01*
X110833333Y-131735771D02*
X111071428Y-131735771D01*
X111071428Y-131735771D02*
X111166666Y-131783390D01*
X111166666Y-131783390D02*
X111214285Y-131831009D01*
X111214285Y-131831009D02*
X111261904Y-131926247D01*
X111261904Y-131926247D02*
X111261904Y-132164342D01*
X111261904Y-132164342D02*
X111214285Y-132259580D01*
X111214285Y-132259580D02*
X111166666Y-132307200D01*
X111166666Y-132307200D02*
X111071428Y-132354819D01*
X111071428Y-132354819D02*
X110833333Y-132354819D01*
X110833333Y-132354819D02*
X110738095Y-132307200D01*
X110738095Y-132307200D02*
X110690476Y-132259580D01*
X111595238Y-131354819D02*
X112214285Y-131354819D01*
X112214285Y-131354819D02*
X111880952Y-131735771D01*
X111880952Y-131735771D02*
X112023809Y-131735771D01*
X112023809Y-131735771D02*
X112119047Y-131783390D01*
X112119047Y-131783390D02*
X112166666Y-131831009D01*
X112166666Y-131831009D02*
X112214285Y-131926247D01*
X112214285Y-131926247D02*
X112214285Y-132164342D01*
X112214285Y-132164342D02*
X112166666Y-132259580D01*
X112166666Y-132259580D02*
X112119047Y-132307200D01*
X112119047Y-132307200D02*
X112023809Y-132354819D01*
X112023809Y-132354819D02*
X111738095Y-132354819D01*
X111738095Y-132354819D02*
X111642857Y-132307200D01*
X111642857Y-132307200D02*
X111595238Y-132259580D01*
D10*
X335690476Y-146409800D02*
X335833333Y-146457419D01*
X335833333Y-146457419D02*
X336071428Y-146457419D01*
X336071428Y-146457419D02*
X336166666Y-146409800D01*
X336166666Y-146409800D02*
X336214285Y-146362180D01*
X336214285Y-146362180D02*
X336261904Y-146266942D01*
X336261904Y-146266942D02*
X336261904Y-146171704D01*
X336261904Y-146171704D02*
X336214285Y-146076466D01*
X336214285Y-146076466D02*
X336166666Y-146028847D01*
X336166666Y-146028847D02*
X336071428Y-145981228D01*
X336071428Y-145981228D02*
X335880952Y-145933609D01*
X335880952Y-145933609D02*
X335785714Y-145885990D01*
X335785714Y-145885990D02*
X335738095Y-145838371D01*
X335738095Y-145838371D02*
X335690476Y-145743133D01*
X335690476Y-145743133D02*
X335690476Y-145647895D01*
X335690476Y-145647895D02*
X335738095Y-145552657D01*
X335738095Y-145552657D02*
X335785714Y-145505038D01*
X335785714Y-145505038D02*
X335880952Y-145457419D01*
X335880952Y-145457419D02*
X336119047Y-145457419D01*
X336119047Y-145457419D02*
X336261904Y-145505038D01*
X336595238Y-145457419D02*
X336833333Y-146457419D01*
X336833333Y-146457419D02*
X337023809Y-145743133D01*
X337023809Y-145743133D02*
X337214285Y-146457419D01*
X337214285Y-146457419D02*
X337452381Y-145457419D01*
X337738095Y-145457419D02*
X338357142Y-145457419D01*
X338357142Y-145457419D02*
X338023809Y-145838371D01*
X338023809Y-145838371D02*
X338166666Y-145838371D01*
X338166666Y-145838371D02*
X338261904Y-145885990D01*
X338261904Y-145885990D02*
X338309523Y-145933609D01*
X338309523Y-145933609D02*
X338357142Y-146028847D01*
X338357142Y-146028847D02*
X338357142Y-146266942D01*
X338357142Y-146266942D02*
X338309523Y-146362180D01*
X338309523Y-146362180D02*
X338261904Y-146409800D01*
X338261904Y-146409800D02*
X338166666Y-146457419D01*
X338166666Y-146457419D02*
X337880952Y-146457419D01*
X337880952Y-146457419D02*
X337785714Y-146409800D01*
X337785714Y-146409800D02*
X337738095Y-146362180D01*
X339309523Y-146457419D02*
X338738095Y-146457419D01*
X339023809Y-146457419D02*
X339023809Y-145457419D01*
X339023809Y-145457419D02*
X338928571Y-145600276D01*
X338928571Y-145600276D02*
X338833333Y-145695514D01*
X338833333Y-145695514D02*
X338738095Y-145743133D01*
X197440476Y-146409800D02*
X197583333Y-146457419D01*
X197583333Y-146457419D02*
X197821428Y-146457419D01*
X197821428Y-146457419D02*
X197916666Y-146409800D01*
X197916666Y-146409800D02*
X197964285Y-146362180D01*
X197964285Y-146362180D02*
X198011904Y-146266942D01*
X198011904Y-146266942D02*
X198011904Y-146171704D01*
X198011904Y-146171704D02*
X197964285Y-146076466D01*
X197964285Y-146076466D02*
X197916666Y-146028847D01*
X197916666Y-146028847D02*
X197821428Y-145981228D01*
X197821428Y-145981228D02*
X197630952Y-145933609D01*
X197630952Y-145933609D02*
X197535714Y-145885990D01*
X197535714Y-145885990D02*
X197488095Y-145838371D01*
X197488095Y-145838371D02*
X197440476Y-145743133D01*
X197440476Y-145743133D02*
X197440476Y-145647895D01*
X197440476Y-145647895D02*
X197488095Y-145552657D01*
X197488095Y-145552657D02*
X197535714Y-145505038D01*
X197535714Y-145505038D02*
X197630952Y-145457419D01*
X197630952Y-145457419D02*
X197869047Y-145457419D01*
X197869047Y-145457419D02*
X198011904Y-145505038D01*
X198345238Y-145457419D02*
X198583333Y-146457419D01*
X198583333Y-146457419D02*
X198773809Y-145743133D01*
X198773809Y-145743133D02*
X198964285Y-146457419D01*
X198964285Y-146457419D02*
X199202381Y-145457419D01*
X200107142Y-146457419D02*
X199535714Y-146457419D01*
X199821428Y-146457419D02*
X199821428Y-145457419D01*
X199821428Y-145457419D02*
X199726190Y-145600276D01*
X199726190Y-145600276D02*
X199630952Y-145695514D01*
X199630952Y-145695514D02*
X199535714Y-145743133D01*
X201011904Y-145457419D02*
X200535714Y-145457419D01*
X200535714Y-145457419D02*
X200488095Y-145933609D01*
X200488095Y-145933609D02*
X200535714Y-145885990D01*
X200535714Y-145885990D02*
X200630952Y-145838371D01*
X200630952Y-145838371D02*
X200869047Y-145838371D01*
X200869047Y-145838371D02*
X200964285Y-145885990D01*
X200964285Y-145885990D02*
X201011904Y-145933609D01*
X201011904Y-145933609D02*
X201059523Y-146028847D01*
X201059523Y-146028847D02*
X201059523Y-146266942D01*
X201059523Y-146266942D02*
X201011904Y-146362180D01*
X201011904Y-146362180D02*
X200964285Y-146409800D01*
X200964285Y-146409800D02*
X200869047Y-146457419D01*
X200869047Y-146457419D02*
X200630952Y-146457419D01*
X200630952Y-146457419D02*
X200535714Y-146409800D01*
X200535714Y-146409800D02*
X200488095Y-146362180D01*
X153190476Y-146409800D02*
X153333333Y-146457419D01*
X153333333Y-146457419D02*
X153571428Y-146457419D01*
X153571428Y-146457419D02*
X153666666Y-146409800D01*
X153666666Y-146409800D02*
X153714285Y-146362180D01*
X153714285Y-146362180D02*
X153761904Y-146266942D01*
X153761904Y-146266942D02*
X153761904Y-146171704D01*
X153761904Y-146171704D02*
X153714285Y-146076466D01*
X153714285Y-146076466D02*
X153666666Y-146028847D01*
X153666666Y-146028847D02*
X153571428Y-145981228D01*
X153571428Y-145981228D02*
X153380952Y-145933609D01*
X153380952Y-145933609D02*
X153285714Y-145885990D01*
X153285714Y-145885990D02*
X153238095Y-145838371D01*
X153238095Y-145838371D02*
X153190476Y-145743133D01*
X153190476Y-145743133D02*
X153190476Y-145647895D01*
X153190476Y-145647895D02*
X153238095Y-145552657D01*
X153238095Y-145552657D02*
X153285714Y-145505038D01*
X153285714Y-145505038D02*
X153380952Y-145457419D01*
X153380952Y-145457419D02*
X153619047Y-145457419D01*
X153619047Y-145457419D02*
X153761904Y-145505038D01*
X154095238Y-145457419D02*
X154333333Y-146457419D01*
X154333333Y-146457419D02*
X154523809Y-145743133D01*
X154523809Y-145743133D02*
X154714285Y-146457419D01*
X154714285Y-146457419D02*
X154952381Y-145457419D01*
X155857142Y-146457419D02*
X155285714Y-146457419D01*
X155571428Y-146457419D02*
X155571428Y-145457419D01*
X155571428Y-145457419D02*
X155476190Y-145600276D01*
X155476190Y-145600276D02*
X155380952Y-145695514D01*
X155380952Y-145695514D02*
X155285714Y-145743133D01*
X156476190Y-145457419D02*
X156571428Y-145457419D01*
X156571428Y-145457419D02*
X156666666Y-145505038D01*
X156666666Y-145505038D02*
X156714285Y-145552657D01*
X156714285Y-145552657D02*
X156761904Y-145647895D01*
X156761904Y-145647895D02*
X156809523Y-145838371D01*
X156809523Y-145838371D02*
X156809523Y-146076466D01*
X156809523Y-146076466D02*
X156761904Y-146266942D01*
X156761904Y-146266942D02*
X156714285Y-146362180D01*
X156714285Y-146362180D02*
X156666666Y-146409800D01*
X156666666Y-146409800D02*
X156571428Y-146457419D01*
X156571428Y-146457419D02*
X156476190Y-146457419D01*
X156476190Y-146457419D02*
X156380952Y-146409800D01*
X156380952Y-146409800D02*
X156333333Y-146362180D01*
X156333333Y-146362180D02*
X156285714Y-146266942D01*
X156285714Y-146266942D02*
X156238095Y-146076466D01*
X156238095Y-146076466D02*
X156238095Y-145838371D01*
X156238095Y-145838371D02*
X156285714Y-145647895D01*
X156285714Y-145647895D02*
X156333333Y-145552657D01*
X156333333Y-145552657D02*
X156380952Y-145505038D01*
X156380952Y-145505038D02*
X156476190Y-145457419D01*
X327690476Y-146409800D02*
X327833333Y-146457419D01*
X327833333Y-146457419D02*
X328071428Y-146457419D01*
X328071428Y-146457419D02*
X328166666Y-146409800D01*
X328166666Y-146409800D02*
X328214285Y-146362180D01*
X328214285Y-146362180D02*
X328261904Y-146266942D01*
X328261904Y-146266942D02*
X328261904Y-146171704D01*
X328261904Y-146171704D02*
X328214285Y-146076466D01*
X328214285Y-146076466D02*
X328166666Y-146028847D01*
X328166666Y-146028847D02*
X328071428Y-145981228D01*
X328071428Y-145981228D02*
X327880952Y-145933609D01*
X327880952Y-145933609D02*
X327785714Y-145885990D01*
X327785714Y-145885990D02*
X327738095Y-145838371D01*
X327738095Y-145838371D02*
X327690476Y-145743133D01*
X327690476Y-145743133D02*
X327690476Y-145647895D01*
X327690476Y-145647895D02*
X327738095Y-145552657D01*
X327738095Y-145552657D02*
X327785714Y-145505038D01*
X327785714Y-145505038D02*
X327880952Y-145457419D01*
X327880952Y-145457419D02*
X328119047Y-145457419D01*
X328119047Y-145457419D02*
X328261904Y-145505038D01*
X328595238Y-145457419D02*
X328833333Y-146457419D01*
X328833333Y-146457419D02*
X329023809Y-145743133D01*
X329023809Y-145743133D02*
X329214285Y-146457419D01*
X329214285Y-146457419D02*
X329452381Y-145457419D01*
X329738095Y-145457419D02*
X330357142Y-145457419D01*
X330357142Y-145457419D02*
X330023809Y-145838371D01*
X330023809Y-145838371D02*
X330166666Y-145838371D01*
X330166666Y-145838371D02*
X330261904Y-145885990D01*
X330261904Y-145885990D02*
X330309523Y-145933609D01*
X330309523Y-145933609D02*
X330357142Y-146028847D01*
X330357142Y-146028847D02*
X330357142Y-146266942D01*
X330357142Y-146266942D02*
X330309523Y-146362180D01*
X330309523Y-146362180D02*
X330261904Y-146409800D01*
X330261904Y-146409800D02*
X330166666Y-146457419D01*
X330166666Y-146457419D02*
X329880952Y-146457419D01*
X329880952Y-146457419D02*
X329785714Y-146409800D01*
X329785714Y-146409800D02*
X329738095Y-146362180D01*
X330976190Y-145457419D02*
X331071428Y-145457419D01*
X331071428Y-145457419D02*
X331166666Y-145505038D01*
X331166666Y-145505038D02*
X331214285Y-145552657D01*
X331214285Y-145552657D02*
X331261904Y-145647895D01*
X331261904Y-145647895D02*
X331309523Y-145838371D01*
X331309523Y-145838371D02*
X331309523Y-146076466D01*
X331309523Y-146076466D02*
X331261904Y-146266942D01*
X331261904Y-146266942D02*
X331214285Y-146362180D01*
X331214285Y-146362180D02*
X331166666Y-146409800D01*
X331166666Y-146409800D02*
X331071428Y-146457419D01*
X331071428Y-146457419D02*
X330976190Y-146457419D01*
X330976190Y-146457419D02*
X330880952Y-146409800D01*
X330880952Y-146409800D02*
X330833333Y-146362180D01*
X330833333Y-146362180D02*
X330785714Y-146266942D01*
X330785714Y-146266942D02*
X330738095Y-146076466D01*
X330738095Y-146076466D02*
X330738095Y-145838371D01*
X330738095Y-145838371D02*
X330785714Y-145647895D01*
X330785714Y-145647895D02*
X330833333Y-145552657D01*
X330833333Y-145552657D02*
X330880952Y-145505038D01*
X330880952Y-145505038D02*
X330976190Y-145457419D01*
X93166667Y-146409800D02*
X93309524Y-146457419D01*
X93309524Y-146457419D02*
X93547619Y-146457419D01*
X93547619Y-146457419D02*
X93642857Y-146409800D01*
X93642857Y-146409800D02*
X93690476Y-146362180D01*
X93690476Y-146362180D02*
X93738095Y-146266942D01*
X93738095Y-146266942D02*
X93738095Y-146171704D01*
X93738095Y-146171704D02*
X93690476Y-146076466D01*
X93690476Y-146076466D02*
X93642857Y-146028847D01*
X93642857Y-146028847D02*
X93547619Y-145981228D01*
X93547619Y-145981228D02*
X93357143Y-145933609D01*
X93357143Y-145933609D02*
X93261905Y-145885990D01*
X93261905Y-145885990D02*
X93214286Y-145838371D01*
X93214286Y-145838371D02*
X93166667Y-145743133D01*
X93166667Y-145743133D02*
X93166667Y-145647895D01*
X93166667Y-145647895D02*
X93214286Y-145552657D01*
X93214286Y-145552657D02*
X93261905Y-145505038D01*
X93261905Y-145505038D02*
X93357143Y-145457419D01*
X93357143Y-145457419D02*
X93595238Y-145457419D01*
X93595238Y-145457419D02*
X93738095Y-145505038D01*
X94071429Y-145457419D02*
X94309524Y-146457419D01*
X94309524Y-146457419D02*
X94500000Y-145743133D01*
X94500000Y-145743133D02*
X94690476Y-146457419D01*
X94690476Y-146457419D02*
X94928572Y-145457419D01*
X95214286Y-145457419D02*
X95833333Y-145457419D01*
X95833333Y-145457419D02*
X95500000Y-145838371D01*
X95500000Y-145838371D02*
X95642857Y-145838371D01*
X95642857Y-145838371D02*
X95738095Y-145885990D01*
X95738095Y-145885990D02*
X95785714Y-145933609D01*
X95785714Y-145933609D02*
X95833333Y-146028847D01*
X95833333Y-146028847D02*
X95833333Y-146266942D01*
X95833333Y-146266942D02*
X95785714Y-146362180D01*
X95785714Y-146362180D02*
X95738095Y-146409800D01*
X95738095Y-146409800D02*
X95642857Y-146457419D01*
X95642857Y-146457419D02*
X95357143Y-146457419D01*
X95357143Y-146457419D02*
X95261905Y-146409800D01*
X95261905Y-146409800D02*
X95214286Y-146362180D01*
X249190476Y-146409800D02*
X249333333Y-146457419D01*
X249333333Y-146457419D02*
X249571428Y-146457419D01*
X249571428Y-146457419D02*
X249666666Y-146409800D01*
X249666666Y-146409800D02*
X249714285Y-146362180D01*
X249714285Y-146362180D02*
X249761904Y-146266942D01*
X249761904Y-146266942D02*
X249761904Y-146171704D01*
X249761904Y-146171704D02*
X249714285Y-146076466D01*
X249714285Y-146076466D02*
X249666666Y-146028847D01*
X249666666Y-146028847D02*
X249571428Y-145981228D01*
X249571428Y-145981228D02*
X249380952Y-145933609D01*
X249380952Y-145933609D02*
X249285714Y-145885990D01*
X249285714Y-145885990D02*
X249238095Y-145838371D01*
X249238095Y-145838371D02*
X249190476Y-145743133D01*
X249190476Y-145743133D02*
X249190476Y-145647895D01*
X249190476Y-145647895D02*
X249238095Y-145552657D01*
X249238095Y-145552657D02*
X249285714Y-145505038D01*
X249285714Y-145505038D02*
X249380952Y-145457419D01*
X249380952Y-145457419D02*
X249619047Y-145457419D01*
X249619047Y-145457419D02*
X249761904Y-145505038D01*
X250095238Y-145457419D02*
X250333333Y-146457419D01*
X250333333Y-146457419D02*
X250523809Y-145743133D01*
X250523809Y-145743133D02*
X250714285Y-146457419D01*
X250714285Y-146457419D02*
X250952381Y-145457419D01*
X251285714Y-145552657D02*
X251333333Y-145505038D01*
X251333333Y-145505038D02*
X251428571Y-145457419D01*
X251428571Y-145457419D02*
X251666666Y-145457419D01*
X251666666Y-145457419D02*
X251761904Y-145505038D01*
X251761904Y-145505038D02*
X251809523Y-145552657D01*
X251809523Y-145552657D02*
X251857142Y-145647895D01*
X251857142Y-145647895D02*
X251857142Y-145743133D01*
X251857142Y-145743133D02*
X251809523Y-145885990D01*
X251809523Y-145885990D02*
X251238095Y-146457419D01*
X251238095Y-146457419D02*
X251857142Y-146457419D01*
X252809523Y-146457419D02*
X252238095Y-146457419D01*
X252523809Y-146457419D02*
X252523809Y-145457419D01*
X252523809Y-145457419D02*
X252428571Y-145600276D01*
X252428571Y-145600276D02*
X252333333Y-145695514D01*
X252333333Y-145695514D02*
X252238095Y-145743133D01*
X214190476Y-146409800D02*
X214333333Y-146457419D01*
X214333333Y-146457419D02*
X214571428Y-146457419D01*
X214571428Y-146457419D02*
X214666666Y-146409800D01*
X214666666Y-146409800D02*
X214714285Y-146362180D01*
X214714285Y-146362180D02*
X214761904Y-146266942D01*
X214761904Y-146266942D02*
X214761904Y-146171704D01*
X214761904Y-146171704D02*
X214714285Y-146076466D01*
X214714285Y-146076466D02*
X214666666Y-146028847D01*
X214666666Y-146028847D02*
X214571428Y-145981228D01*
X214571428Y-145981228D02*
X214380952Y-145933609D01*
X214380952Y-145933609D02*
X214285714Y-145885990D01*
X214285714Y-145885990D02*
X214238095Y-145838371D01*
X214238095Y-145838371D02*
X214190476Y-145743133D01*
X214190476Y-145743133D02*
X214190476Y-145647895D01*
X214190476Y-145647895D02*
X214238095Y-145552657D01*
X214238095Y-145552657D02*
X214285714Y-145505038D01*
X214285714Y-145505038D02*
X214380952Y-145457419D01*
X214380952Y-145457419D02*
X214619047Y-145457419D01*
X214619047Y-145457419D02*
X214761904Y-145505038D01*
X215095238Y-145457419D02*
X215333333Y-146457419D01*
X215333333Y-146457419D02*
X215523809Y-145743133D01*
X215523809Y-145743133D02*
X215714285Y-146457419D01*
X215714285Y-146457419D02*
X215952381Y-145457419D01*
X216857142Y-146457419D02*
X216285714Y-146457419D01*
X216571428Y-146457419D02*
X216571428Y-145457419D01*
X216571428Y-145457419D02*
X216476190Y-145600276D01*
X216476190Y-145600276D02*
X216380952Y-145695514D01*
X216380952Y-145695514D02*
X216285714Y-145743133D01*
X217190476Y-145457419D02*
X217857142Y-145457419D01*
X217857142Y-145457419D02*
X217428571Y-146457419D01*
X118166667Y-146409800D02*
X118309524Y-146457419D01*
X118309524Y-146457419D02*
X118547619Y-146457419D01*
X118547619Y-146457419D02*
X118642857Y-146409800D01*
X118642857Y-146409800D02*
X118690476Y-146362180D01*
X118690476Y-146362180D02*
X118738095Y-146266942D01*
X118738095Y-146266942D02*
X118738095Y-146171704D01*
X118738095Y-146171704D02*
X118690476Y-146076466D01*
X118690476Y-146076466D02*
X118642857Y-146028847D01*
X118642857Y-146028847D02*
X118547619Y-145981228D01*
X118547619Y-145981228D02*
X118357143Y-145933609D01*
X118357143Y-145933609D02*
X118261905Y-145885990D01*
X118261905Y-145885990D02*
X118214286Y-145838371D01*
X118214286Y-145838371D02*
X118166667Y-145743133D01*
X118166667Y-145743133D02*
X118166667Y-145647895D01*
X118166667Y-145647895D02*
X118214286Y-145552657D01*
X118214286Y-145552657D02*
X118261905Y-145505038D01*
X118261905Y-145505038D02*
X118357143Y-145457419D01*
X118357143Y-145457419D02*
X118595238Y-145457419D01*
X118595238Y-145457419D02*
X118738095Y-145505038D01*
X119071429Y-145457419D02*
X119309524Y-146457419D01*
X119309524Y-146457419D02*
X119500000Y-145743133D01*
X119500000Y-145743133D02*
X119690476Y-146457419D01*
X119690476Y-146457419D02*
X119928572Y-145457419D01*
X120738095Y-145457419D02*
X120547619Y-145457419D01*
X120547619Y-145457419D02*
X120452381Y-145505038D01*
X120452381Y-145505038D02*
X120404762Y-145552657D01*
X120404762Y-145552657D02*
X120309524Y-145695514D01*
X120309524Y-145695514D02*
X120261905Y-145885990D01*
X120261905Y-145885990D02*
X120261905Y-146266942D01*
X120261905Y-146266942D02*
X120309524Y-146362180D01*
X120309524Y-146362180D02*
X120357143Y-146409800D01*
X120357143Y-146409800D02*
X120452381Y-146457419D01*
X120452381Y-146457419D02*
X120642857Y-146457419D01*
X120642857Y-146457419D02*
X120738095Y-146409800D01*
X120738095Y-146409800D02*
X120785714Y-146362180D01*
X120785714Y-146362180D02*
X120833333Y-146266942D01*
X120833333Y-146266942D02*
X120833333Y-146028847D01*
X120833333Y-146028847D02*
X120785714Y-145933609D01*
X120785714Y-145933609D02*
X120738095Y-145885990D01*
X120738095Y-145885990D02*
X120642857Y-145838371D01*
X120642857Y-145838371D02*
X120452381Y-145838371D01*
X120452381Y-145838371D02*
X120357143Y-145885990D01*
X120357143Y-145885990D02*
X120309524Y-145933609D01*
X120309524Y-145933609D02*
X120261905Y-146028847D01*
X257940476Y-146409800D02*
X258083333Y-146457419D01*
X258083333Y-146457419D02*
X258321428Y-146457419D01*
X258321428Y-146457419D02*
X258416666Y-146409800D01*
X258416666Y-146409800D02*
X258464285Y-146362180D01*
X258464285Y-146362180D02*
X258511904Y-146266942D01*
X258511904Y-146266942D02*
X258511904Y-146171704D01*
X258511904Y-146171704D02*
X258464285Y-146076466D01*
X258464285Y-146076466D02*
X258416666Y-146028847D01*
X258416666Y-146028847D02*
X258321428Y-145981228D01*
X258321428Y-145981228D02*
X258130952Y-145933609D01*
X258130952Y-145933609D02*
X258035714Y-145885990D01*
X258035714Y-145885990D02*
X257988095Y-145838371D01*
X257988095Y-145838371D02*
X257940476Y-145743133D01*
X257940476Y-145743133D02*
X257940476Y-145647895D01*
X257940476Y-145647895D02*
X257988095Y-145552657D01*
X257988095Y-145552657D02*
X258035714Y-145505038D01*
X258035714Y-145505038D02*
X258130952Y-145457419D01*
X258130952Y-145457419D02*
X258369047Y-145457419D01*
X258369047Y-145457419D02*
X258511904Y-145505038D01*
X258845238Y-145457419D02*
X259083333Y-146457419D01*
X259083333Y-146457419D02*
X259273809Y-145743133D01*
X259273809Y-145743133D02*
X259464285Y-146457419D01*
X259464285Y-146457419D02*
X259702381Y-145457419D01*
X260035714Y-145552657D02*
X260083333Y-145505038D01*
X260083333Y-145505038D02*
X260178571Y-145457419D01*
X260178571Y-145457419D02*
X260416666Y-145457419D01*
X260416666Y-145457419D02*
X260511904Y-145505038D01*
X260511904Y-145505038D02*
X260559523Y-145552657D01*
X260559523Y-145552657D02*
X260607142Y-145647895D01*
X260607142Y-145647895D02*
X260607142Y-145743133D01*
X260607142Y-145743133D02*
X260559523Y-145885990D01*
X260559523Y-145885990D02*
X259988095Y-146457419D01*
X259988095Y-146457419D02*
X260607142Y-146457419D01*
X260988095Y-145552657D02*
X261035714Y-145505038D01*
X261035714Y-145505038D02*
X261130952Y-145457419D01*
X261130952Y-145457419D02*
X261369047Y-145457419D01*
X261369047Y-145457419D02*
X261464285Y-145505038D01*
X261464285Y-145505038D02*
X261511904Y-145552657D01*
X261511904Y-145552657D02*
X261559523Y-145647895D01*
X261559523Y-145647895D02*
X261559523Y-145743133D01*
X261559523Y-145743133D02*
X261511904Y-145885990D01*
X261511904Y-145885990D02*
X260940476Y-146457419D01*
X260940476Y-146457419D02*
X261559523Y-146457419D01*
X84166667Y-146409800D02*
X84309524Y-146457419D01*
X84309524Y-146457419D02*
X84547619Y-146457419D01*
X84547619Y-146457419D02*
X84642857Y-146409800D01*
X84642857Y-146409800D02*
X84690476Y-146362180D01*
X84690476Y-146362180D02*
X84738095Y-146266942D01*
X84738095Y-146266942D02*
X84738095Y-146171704D01*
X84738095Y-146171704D02*
X84690476Y-146076466D01*
X84690476Y-146076466D02*
X84642857Y-146028847D01*
X84642857Y-146028847D02*
X84547619Y-145981228D01*
X84547619Y-145981228D02*
X84357143Y-145933609D01*
X84357143Y-145933609D02*
X84261905Y-145885990D01*
X84261905Y-145885990D02*
X84214286Y-145838371D01*
X84214286Y-145838371D02*
X84166667Y-145743133D01*
X84166667Y-145743133D02*
X84166667Y-145647895D01*
X84166667Y-145647895D02*
X84214286Y-145552657D01*
X84214286Y-145552657D02*
X84261905Y-145505038D01*
X84261905Y-145505038D02*
X84357143Y-145457419D01*
X84357143Y-145457419D02*
X84595238Y-145457419D01*
X84595238Y-145457419D02*
X84738095Y-145505038D01*
X85071429Y-145457419D02*
X85309524Y-146457419D01*
X85309524Y-146457419D02*
X85500000Y-145743133D01*
X85500000Y-145743133D02*
X85690476Y-146457419D01*
X85690476Y-146457419D02*
X85928572Y-145457419D01*
X86261905Y-145552657D02*
X86309524Y-145505038D01*
X86309524Y-145505038D02*
X86404762Y-145457419D01*
X86404762Y-145457419D02*
X86642857Y-145457419D01*
X86642857Y-145457419D02*
X86738095Y-145505038D01*
X86738095Y-145505038D02*
X86785714Y-145552657D01*
X86785714Y-145552657D02*
X86833333Y-145647895D01*
X86833333Y-145647895D02*
X86833333Y-145743133D01*
X86833333Y-145743133D02*
X86785714Y-145885990D01*
X86785714Y-145885990D02*
X86214286Y-146457419D01*
X86214286Y-146457419D02*
X86833333Y-146457419D01*
X347690476Y-146409800D02*
X347833333Y-146457419D01*
X347833333Y-146457419D02*
X348071428Y-146457419D01*
X348071428Y-146457419D02*
X348166666Y-146409800D01*
X348166666Y-146409800D02*
X348214285Y-146362180D01*
X348214285Y-146362180D02*
X348261904Y-146266942D01*
X348261904Y-146266942D02*
X348261904Y-146171704D01*
X348261904Y-146171704D02*
X348214285Y-146076466D01*
X348214285Y-146076466D02*
X348166666Y-146028847D01*
X348166666Y-146028847D02*
X348071428Y-145981228D01*
X348071428Y-145981228D02*
X347880952Y-145933609D01*
X347880952Y-145933609D02*
X347785714Y-145885990D01*
X347785714Y-145885990D02*
X347738095Y-145838371D01*
X347738095Y-145838371D02*
X347690476Y-145743133D01*
X347690476Y-145743133D02*
X347690476Y-145647895D01*
X347690476Y-145647895D02*
X347738095Y-145552657D01*
X347738095Y-145552657D02*
X347785714Y-145505038D01*
X347785714Y-145505038D02*
X347880952Y-145457419D01*
X347880952Y-145457419D02*
X348119047Y-145457419D01*
X348119047Y-145457419D02*
X348261904Y-145505038D01*
X348595238Y-145457419D02*
X348833333Y-146457419D01*
X348833333Y-146457419D02*
X349023809Y-145743133D01*
X349023809Y-145743133D02*
X349214285Y-146457419D01*
X349214285Y-146457419D02*
X349452381Y-145457419D01*
X349738095Y-145457419D02*
X350357142Y-145457419D01*
X350357142Y-145457419D02*
X350023809Y-145838371D01*
X350023809Y-145838371D02*
X350166666Y-145838371D01*
X350166666Y-145838371D02*
X350261904Y-145885990D01*
X350261904Y-145885990D02*
X350309523Y-145933609D01*
X350309523Y-145933609D02*
X350357142Y-146028847D01*
X350357142Y-146028847D02*
X350357142Y-146266942D01*
X350357142Y-146266942D02*
X350309523Y-146362180D01*
X350309523Y-146362180D02*
X350261904Y-146409800D01*
X350261904Y-146409800D02*
X350166666Y-146457419D01*
X350166666Y-146457419D02*
X349880952Y-146457419D01*
X349880952Y-146457419D02*
X349785714Y-146409800D01*
X349785714Y-146409800D02*
X349738095Y-146362180D01*
X350738095Y-145552657D02*
X350785714Y-145505038D01*
X350785714Y-145505038D02*
X350880952Y-145457419D01*
X350880952Y-145457419D02*
X351119047Y-145457419D01*
X351119047Y-145457419D02*
X351214285Y-145505038D01*
X351214285Y-145505038D02*
X351261904Y-145552657D01*
X351261904Y-145552657D02*
X351309523Y-145647895D01*
X351309523Y-145647895D02*
X351309523Y-145743133D01*
X351309523Y-145743133D02*
X351261904Y-145885990D01*
X351261904Y-145885990D02*
X350690476Y-146457419D01*
X350690476Y-146457419D02*
X351309523Y-146457419D01*
X230690476Y-146409800D02*
X230833333Y-146457419D01*
X230833333Y-146457419D02*
X231071428Y-146457419D01*
X231071428Y-146457419D02*
X231166666Y-146409800D01*
X231166666Y-146409800D02*
X231214285Y-146362180D01*
X231214285Y-146362180D02*
X231261904Y-146266942D01*
X231261904Y-146266942D02*
X231261904Y-146171704D01*
X231261904Y-146171704D02*
X231214285Y-146076466D01*
X231214285Y-146076466D02*
X231166666Y-146028847D01*
X231166666Y-146028847D02*
X231071428Y-145981228D01*
X231071428Y-145981228D02*
X230880952Y-145933609D01*
X230880952Y-145933609D02*
X230785714Y-145885990D01*
X230785714Y-145885990D02*
X230738095Y-145838371D01*
X230738095Y-145838371D02*
X230690476Y-145743133D01*
X230690476Y-145743133D02*
X230690476Y-145647895D01*
X230690476Y-145647895D02*
X230738095Y-145552657D01*
X230738095Y-145552657D02*
X230785714Y-145505038D01*
X230785714Y-145505038D02*
X230880952Y-145457419D01*
X230880952Y-145457419D02*
X231119047Y-145457419D01*
X231119047Y-145457419D02*
X231261904Y-145505038D01*
X231595238Y-145457419D02*
X231833333Y-146457419D01*
X231833333Y-146457419D02*
X232023809Y-145743133D01*
X232023809Y-145743133D02*
X232214285Y-146457419D01*
X232214285Y-146457419D02*
X232452381Y-145457419D01*
X233357142Y-146457419D02*
X232785714Y-146457419D01*
X233071428Y-146457419D02*
X233071428Y-145457419D01*
X233071428Y-145457419D02*
X232976190Y-145600276D01*
X232976190Y-145600276D02*
X232880952Y-145695514D01*
X232880952Y-145695514D02*
X232785714Y-145743133D01*
X233833333Y-146457419D02*
X234023809Y-146457419D01*
X234023809Y-146457419D02*
X234119047Y-146409800D01*
X234119047Y-146409800D02*
X234166666Y-146362180D01*
X234166666Y-146362180D02*
X234261904Y-146219323D01*
X234261904Y-146219323D02*
X234309523Y-146028847D01*
X234309523Y-146028847D02*
X234309523Y-145647895D01*
X234309523Y-145647895D02*
X234261904Y-145552657D01*
X234261904Y-145552657D02*
X234214285Y-145505038D01*
X234214285Y-145505038D02*
X234119047Y-145457419D01*
X234119047Y-145457419D02*
X233928571Y-145457419D01*
X233928571Y-145457419D02*
X233833333Y-145505038D01*
X233833333Y-145505038D02*
X233785714Y-145552657D01*
X233785714Y-145552657D02*
X233738095Y-145647895D01*
X233738095Y-145647895D02*
X233738095Y-145885990D01*
X233738095Y-145885990D02*
X233785714Y-145981228D01*
X233785714Y-145981228D02*
X233833333Y-146028847D01*
X233833333Y-146028847D02*
X233928571Y-146076466D01*
X233928571Y-146076466D02*
X234119047Y-146076466D01*
X234119047Y-146076466D02*
X234214285Y-146028847D01*
X234214285Y-146028847D02*
X234261904Y-145981228D01*
X234261904Y-145981228D02*
X234309523Y-145885990D01*
X222690476Y-146409800D02*
X222833333Y-146457419D01*
X222833333Y-146457419D02*
X223071428Y-146457419D01*
X223071428Y-146457419D02*
X223166666Y-146409800D01*
X223166666Y-146409800D02*
X223214285Y-146362180D01*
X223214285Y-146362180D02*
X223261904Y-146266942D01*
X223261904Y-146266942D02*
X223261904Y-146171704D01*
X223261904Y-146171704D02*
X223214285Y-146076466D01*
X223214285Y-146076466D02*
X223166666Y-146028847D01*
X223166666Y-146028847D02*
X223071428Y-145981228D01*
X223071428Y-145981228D02*
X222880952Y-145933609D01*
X222880952Y-145933609D02*
X222785714Y-145885990D01*
X222785714Y-145885990D02*
X222738095Y-145838371D01*
X222738095Y-145838371D02*
X222690476Y-145743133D01*
X222690476Y-145743133D02*
X222690476Y-145647895D01*
X222690476Y-145647895D02*
X222738095Y-145552657D01*
X222738095Y-145552657D02*
X222785714Y-145505038D01*
X222785714Y-145505038D02*
X222880952Y-145457419D01*
X222880952Y-145457419D02*
X223119047Y-145457419D01*
X223119047Y-145457419D02*
X223261904Y-145505038D01*
X223595238Y-145457419D02*
X223833333Y-146457419D01*
X223833333Y-146457419D02*
X224023809Y-145743133D01*
X224023809Y-145743133D02*
X224214285Y-146457419D01*
X224214285Y-146457419D02*
X224452381Y-145457419D01*
X225357142Y-146457419D02*
X224785714Y-146457419D01*
X225071428Y-146457419D02*
X225071428Y-145457419D01*
X225071428Y-145457419D02*
X224976190Y-145600276D01*
X224976190Y-145600276D02*
X224880952Y-145695514D01*
X224880952Y-145695514D02*
X224785714Y-145743133D01*
X225928571Y-145885990D02*
X225833333Y-145838371D01*
X225833333Y-145838371D02*
X225785714Y-145790752D01*
X225785714Y-145790752D02*
X225738095Y-145695514D01*
X225738095Y-145695514D02*
X225738095Y-145647895D01*
X225738095Y-145647895D02*
X225785714Y-145552657D01*
X225785714Y-145552657D02*
X225833333Y-145505038D01*
X225833333Y-145505038D02*
X225928571Y-145457419D01*
X225928571Y-145457419D02*
X226119047Y-145457419D01*
X226119047Y-145457419D02*
X226214285Y-145505038D01*
X226214285Y-145505038D02*
X226261904Y-145552657D01*
X226261904Y-145552657D02*
X226309523Y-145647895D01*
X226309523Y-145647895D02*
X226309523Y-145695514D01*
X226309523Y-145695514D02*
X226261904Y-145790752D01*
X226261904Y-145790752D02*
X226214285Y-145838371D01*
X226214285Y-145838371D02*
X226119047Y-145885990D01*
X226119047Y-145885990D02*
X225928571Y-145885990D01*
X225928571Y-145885990D02*
X225833333Y-145933609D01*
X225833333Y-145933609D02*
X225785714Y-145981228D01*
X225785714Y-145981228D02*
X225738095Y-146076466D01*
X225738095Y-146076466D02*
X225738095Y-146266942D01*
X225738095Y-146266942D02*
X225785714Y-146362180D01*
X225785714Y-146362180D02*
X225833333Y-146409800D01*
X225833333Y-146409800D02*
X225928571Y-146457419D01*
X225928571Y-146457419D02*
X226119047Y-146457419D01*
X226119047Y-146457419D02*
X226214285Y-146409800D01*
X226214285Y-146409800D02*
X226261904Y-146362180D01*
X226261904Y-146362180D02*
X226309523Y-146266942D01*
X226309523Y-146266942D02*
X226309523Y-146076466D01*
X226309523Y-146076466D02*
X226261904Y-145981228D01*
X226261904Y-145981228D02*
X226214285Y-145933609D01*
X226214285Y-145933609D02*
X226119047Y-145885990D01*
D11*
X201157142Y-130039580D02*
X201109523Y-130087200D01*
X201109523Y-130087200D02*
X200966666Y-130134819D01*
X200966666Y-130134819D02*
X200871428Y-130134819D01*
X200871428Y-130134819D02*
X200728571Y-130087200D01*
X200728571Y-130087200D02*
X200633333Y-129991961D01*
X200633333Y-129991961D02*
X200585714Y-129896723D01*
X200585714Y-129896723D02*
X200538095Y-129706247D01*
X200538095Y-129706247D02*
X200538095Y-129563390D01*
X200538095Y-129563390D02*
X200585714Y-129372914D01*
X200585714Y-129372914D02*
X200633333Y-129277676D01*
X200633333Y-129277676D02*
X200728571Y-129182438D01*
X200728571Y-129182438D02*
X200871428Y-129134819D01*
X200871428Y-129134819D02*
X200966666Y-129134819D01*
X200966666Y-129134819D02*
X201109523Y-129182438D01*
X201109523Y-129182438D02*
X201157142Y-129230057D01*
X202109523Y-130134819D02*
X201538095Y-130134819D01*
X201823809Y-130134819D02*
X201823809Y-129134819D01*
X201823809Y-129134819D02*
X201728571Y-129277676D01*
X201728571Y-129277676D02*
X201633333Y-129372914D01*
X201633333Y-129372914D02*
X201538095Y-129420533D01*
X202490476Y-129230057D02*
X202538095Y-129182438D01*
X202538095Y-129182438D02*
X202633333Y-129134819D01*
X202633333Y-129134819D02*
X202871428Y-129134819D01*
X202871428Y-129134819D02*
X202966666Y-129182438D01*
X202966666Y-129182438D02*
X203014285Y-129230057D01*
X203014285Y-129230057D02*
X203061904Y-129325295D01*
X203061904Y-129325295D02*
X203061904Y-129420533D01*
X203061904Y-129420533D02*
X203014285Y-129563390D01*
X203014285Y-129563390D02*
X202442857Y-130134819D01*
X202442857Y-130134819D02*
X203061904Y-130134819D01*
X200157143Y-130704819D02*
X200252381Y-130704819D01*
X200252381Y-130704819D02*
X200347619Y-130752438D01*
X200347619Y-130752438D02*
X200395238Y-130800057D01*
X200395238Y-130800057D02*
X200442857Y-130895295D01*
X200442857Y-130895295D02*
X200490476Y-131085771D01*
X200490476Y-131085771D02*
X200490476Y-131323866D01*
X200490476Y-131323866D02*
X200442857Y-131514342D01*
X200442857Y-131514342D02*
X200395238Y-131609580D01*
X200395238Y-131609580D02*
X200347619Y-131657200D01*
X200347619Y-131657200D02*
X200252381Y-131704819D01*
X200252381Y-131704819D02*
X200157143Y-131704819D01*
X200157143Y-131704819D02*
X200061905Y-131657200D01*
X200061905Y-131657200D02*
X200014286Y-131609580D01*
X200014286Y-131609580D02*
X199966667Y-131514342D01*
X199966667Y-131514342D02*
X199919048Y-131323866D01*
X199919048Y-131323866D02*
X199919048Y-131085771D01*
X199919048Y-131085771D02*
X199966667Y-130895295D01*
X199966667Y-130895295D02*
X200014286Y-130800057D01*
X200014286Y-130800057D02*
X200061905Y-130752438D01*
X200061905Y-130752438D02*
X200157143Y-130704819D01*
X200919048Y-131609580D02*
X200966667Y-131657200D01*
X200966667Y-131657200D02*
X200919048Y-131704819D01*
X200919048Y-131704819D02*
X200871429Y-131657200D01*
X200871429Y-131657200D02*
X200919048Y-131609580D01*
X200919048Y-131609580D02*
X200919048Y-131704819D01*
X201919047Y-131704819D02*
X201347619Y-131704819D01*
X201633333Y-131704819D02*
X201633333Y-130704819D01*
X201633333Y-130704819D02*
X201538095Y-130847676D01*
X201538095Y-130847676D02*
X201442857Y-130942914D01*
X201442857Y-130942914D02*
X201347619Y-130990533D01*
X202776190Y-131038152D02*
X202776190Y-131704819D01*
X202347619Y-131038152D02*
X202347619Y-131561961D01*
X202347619Y-131561961D02*
X202395238Y-131657200D01*
X202395238Y-131657200D02*
X202490476Y-131704819D01*
X202490476Y-131704819D02*
X202633333Y-131704819D01*
X202633333Y-131704819D02*
X202728571Y-131657200D01*
X202728571Y-131657200D02*
X202776190Y-131609580D01*
X203585714Y-131181009D02*
X203252381Y-131181009D01*
X203252381Y-131704819D02*
X203252381Y-130704819D01*
X203252381Y-130704819D02*
X203728571Y-130704819D01*
D10*
X101166667Y-146409800D02*
X101309524Y-146457419D01*
X101309524Y-146457419D02*
X101547619Y-146457419D01*
X101547619Y-146457419D02*
X101642857Y-146409800D01*
X101642857Y-146409800D02*
X101690476Y-146362180D01*
X101690476Y-146362180D02*
X101738095Y-146266942D01*
X101738095Y-146266942D02*
X101738095Y-146171704D01*
X101738095Y-146171704D02*
X101690476Y-146076466D01*
X101690476Y-146076466D02*
X101642857Y-146028847D01*
X101642857Y-146028847D02*
X101547619Y-145981228D01*
X101547619Y-145981228D02*
X101357143Y-145933609D01*
X101357143Y-145933609D02*
X101261905Y-145885990D01*
X101261905Y-145885990D02*
X101214286Y-145838371D01*
X101214286Y-145838371D02*
X101166667Y-145743133D01*
X101166667Y-145743133D02*
X101166667Y-145647895D01*
X101166667Y-145647895D02*
X101214286Y-145552657D01*
X101214286Y-145552657D02*
X101261905Y-145505038D01*
X101261905Y-145505038D02*
X101357143Y-145457419D01*
X101357143Y-145457419D02*
X101595238Y-145457419D01*
X101595238Y-145457419D02*
X101738095Y-145505038D01*
X102071429Y-145457419D02*
X102309524Y-146457419D01*
X102309524Y-146457419D02*
X102500000Y-145743133D01*
X102500000Y-145743133D02*
X102690476Y-146457419D01*
X102690476Y-146457419D02*
X102928572Y-145457419D01*
X103738095Y-145790752D02*
X103738095Y-146457419D01*
X103500000Y-145409800D02*
X103261905Y-146124085D01*
X103261905Y-146124085D02*
X103880952Y-146124085D01*
X144666667Y-146409800D02*
X144809524Y-146457419D01*
X144809524Y-146457419D02*
X145047619Y-146457419D01*
X145047619Y-146457419D02*
X145142857Y-146409800D01*
X145142857Y-146409800D02*
X145190476Y-146362180D01*
X145190476Y-146362180D02*
X145238095Y-146266942D01*
X145238095Y-146266942D02*
X145238095Y-146171704D01*
X145238095Y-146171704D02*
X145190476Y-146076466D01*
X145190476Y-146076466D02*
X145142857Y-146028847D01*
X145142857Y-146028847D02*
X145047619Y-145981228D01*
X145047619Y-145981228D02*
X144857143Y-145933609D01*
X144857143Y-145933609D02*
X144761905Y-145885990D01*
X144761905Y-145885990D02*
X144714286Y-145838371D01*
X144714286Y-145838371D02*
X144666667Y-145743133D01*
X144666667Y-145743133D02*
X144666667Y-145647895D01*
X144666667Y-145647895D02*
X144714286Y-145552657D01*
X144714286Y-145552657D02*
X144761905Y-145505038D01*
X144761905Y-145505038D02*
X144857143Y-145457419D01*
X144857143Y-145457419D02*
X145095238Y-145457419D01*
X145095238Y-145457419D02*
X145238095Y-145505038D01*
X145571429Y-145457419D02*
X145809524Y-146457419D01*
X145809524Y-146457419D02*
X146000000Y-145743133D01*
X146000000Y-145743133D02*
X146190476Y-146457419D01*
X146190476Y-146457419D02*
X146428572Y-145457419D01*
X146857143Y-146457419D02*
X147047619Y-146457419D01*
X147047619Y-146457419D02*
X147142857Y-146409800D01*
X147142857Y-146409800D02*
X147190476Y-146362180D01*
X147190476Y-146362180D02*
X147285714Y-146219323D01*
X147285714Y-146219323D02*
X147333333Y-146028847D01*
X147333333Y-146028847D02*
X147333333Y-145647895D01*
X147333333Y-145647895D02*
X147285714Y-145552657D01*
X147285714Y-145552657D02*
X147238095Y-145505038D01*
X147238095Y-145505038D02*
X147142857Y-145457419D01*
X147142857Y-145457419D02*
X146952381Y-145457419D01*
X146952381Y-145457419D02*
X146857143Y-145505038D01*
X146857143Y-145505038D02*
X146809524Y-145552657D01*
X146809524Y-145552657D02*
X146761905Y-145647895D01*
X146761905Y-145647895D02*
X146761905Y-145885990D01*
X146761905Y-145885990D02*
X146809524Y-145981228D01*
X146809524Y-145981228D02*
X146857143Y-146028847D01*
X146857143Y-146028847D02*
X146952381Y-146076466D01*
X146952381Y-146076466D02*
X147142857Y-146076466D01*
X147142857Y-146076466D02*
X147238095Y-146028847D01*
X147238095Y-146028847D02*
X147285714Y-145981228D01*
X147285714Y-145981228D02*
X147333333Y-145885990D01*
X285190476Y-146409800D02*
X285333333Y-146457419D01*
X285333333Y-146457419D02*
X285571428Y-146457419D01*
X285571428Y-146457419D02*
X285666666Y-146409800D01*
X285666666Y-146409800D02*
X285714285Y-146362180D01*
X285714285Y-146362180D02*
X285761904Y-146266942D01*
X285761904Y-146266942D02*
X285761904Y-146171704D01*
X285761904Y-146171704D02*
X285714285Y-146076466D01*
X285714285Y-146076466D02*
X285666666Y-146028847D01*
X285666666Y-146028847D02*
X285571428Y-145981228D01*
X285571428Y-145981228D02*
X285380952Y-145933609D01*
X285380952Y-145933609D02*
X285285714Y-145885990D01*
X285285714Y-145885990D02*
X285238095Y-145838371D01*
X285238095Y-145838371D02*
X285190476Y-145743133D01*
X285190476Y-145743133D02*
X285190476Y-145647895D01*
X285190476Y-145647895D02*
X285238095Y-145552657D01*
X285238095Y-145552657D02*
X285285714Y-145505038D01*
X285285714Y-145505038D02*
X285380952Y-145457419D01*
X285380952Y-145457419D02*
X285619047Y-145457419D01*
X285619047Y-145457419D02*
X285761904Y-145505038D01*
X286095238Y-145457419D02*
X286333333Y-146457419D01*
X286333333Y-146457419D02*
X286523809Y-145743133D01*
X286523809Y-145743133D02*
X286714285Y-146457419D01*
X286714285Y-146457419D02*
X286952381Y-145457419D01*
X287285714Y-145552657D02*
X287333333Y-145505038D01*
X287333333Y-145505038D02*
X287428571Y-145457419D01*
X287428571Y-145457419D02*
X287666666Y-145457419D01*
X287666666Y-145457419D02*
X287761904Y-145505038D01*
X287761904Y-145505038D02*
X287809523Y-145552657D01*
X287809523Y-145552657D02*
X287857142Y-145647895D01*
X287857142Y-145647895D02*
X287857142Y-145743133D01*
X287857142Y-145743133D02*
X287809523Y-145885990D01*
X287809523Y-145885990D02*
X287238095Y-146457419D01*
X287238095Y-146457419D02*
X287857142Y-146457419D01*
X288761904Y-145457419D02*
X288285714Y-145457419D01*
X288285714Y-145457419D02*
X288238095Y-145933609D01*
X288238095Y-145933609D02*
X288285714Y-145885990D01*
X288285714Y-145885990D02*
X288380952Y-145838371D01*
X288380952Y-145838371D02*
X288619047Y-145838371D01*
X288619047Y-145838371D02*
X288714285Y-145885990D01*
X288714285Y-145885990D02*
X288761904Y-145933609D01*
X288761904Y-145933609D02*
X288809523Y-146028847D01*
X288809523Y-146028847D02*
X288809523Y-146266942D01*
X288809523Y-146266942D02*
X288761904Y-146362180D01*
X288761904Y-146362180D02*
X288714285Y-146409800D01*
X288714285Y-146409800D02*
X288619047Y-146457419D01*
X288619047Y-146457419D02*
X288380952Y-146457419D01*
X288380952Y-146457419D02*
X288285714Y-146409800D01*
X288285714Y-146409800D02*
X288238095Y-146362180D01*
X318690476Y-146409800D02*
X318833333Y-146457419D01*
X318833333Y-146457419D02*
X319071428Y-146457419D01*
X319071428Y-146457419D02*
X319166666Y-146409800D01*
X319166666Y-146409800D02*
X319214285Y-146362180D01*
X319214285Y-146362180D02*
X319261904Y-146266942D01*
X319261904Y-146266942D02*
X319261904Y-146171704D01*
X319261904Y-146171704D02*
X319214285Y-146076466D01*
X319214285Y-146076466D02*
X319166666Y-146028847D01*
X319166666Y-146028847D02*
X319071428Y-145981228D01*
X319071428Y-145981228D02*
X318880952Y-145933609D01*
X318880952Y-145933609D02*
X318785714Y-145885990D01*
X318785714Y-145885990D02*
X318738095Y-145838371D01*
X318738095Y-145838371D02*
X318690476Y-145743133D01*
X318690476Y-145743133D02*
X318690476Y-145647895D01*
X318690476Y-145647895D02*
X318738095Y-145552657D01*
X318738095Y-145552657D02*
X318785714Y-145505038D01*
X318785714Y-145505038D02*
X318880952Y-145457419D01*
X318880952Y-145457419D02*
X319119047Y-145457419D01*
X319119047Y-145457419D02*
X319261904Y-145505038D01*
X319595238Y-145457419D02*
X319833333Y-146457419D01*
X319833333Y-146457419D02*
X320023809Y-145743133D01*
X320023809Y-145743133D02*
X320214285Y-146457419D01*
X320214285Y-146457419D02*
X320452381Y-145457419D01*
X320785714Y-145552657D02*
X320833333Y-145505038D01*
X320833333Y-145505038D02*
X320928571Y-145457419D01*
X320928571Y-145457419D02*
X321166666Y-145457419D01*
X321166666Y-145457419D02*
X321261904Y-145505038D01*
X321261904Y-145505038D02*
X321309523Y-145552657D01*
X321309523Y-145552657D02*
X321357142Y-145647895D01*
X321357142Y-145647895D02*
X321357142Y-145743133D01*
X321357142Y-145743133D02*
X321309523Y-145885990D01*
X321309523Y-145885990D02*
X320738095Y-146457419D01*
X320738095Y-146457419D02*
X321357142Y-146457419D01*
X321833333Y-146457419D02*
X322023809Y-146457419D01*
X322023809Y-146457419D02*
X322119047Y-146409800D01*
X322119047Y-146409800D02*
X322166666Y-146362180D01*
X322166666Y-146362180D02*
X322261904Y-146219323D01*
X322261904Y-146219323D02*
X322309523Y-146028847D01*
X322309523Y-146028847D02*
X322309523Y-145647895D01*
X322309523Y-145647895D02*
X322261904Y-145552657D01*
X322261904Y-145552657D02*
X322214285Y-145505038D01*
X322214285Y-145505038D02*
X322119047Y-145457419D01*
X322119047Y-145457419D02*
X321928571Y-145457419D01*
X321928571Y-145457419D02*
X321833333Y-145505038D01*
X321833333Y-145505038D02*
X321785714Y-145552657D01*
X321785714Y-145552657D02*
X321738095Y-145647895D01*
X321738095Y-145647895D02*
X321738095Y-145885990D01*
X321738095Y-145885990D02*
X321785714Y-145981228D01*
X321785714Y-145981228D02*
X321833333Y-146028847D01*
X321833333Y-146028847D02*
X321928571Y-146076466D01*
X321928571Y-146076466D02*
X322119047Y-146076466D01*
X322119047Y-146076466D02*
X322214285Y-146028847D01*
X322214285Y-146028847D02*
X322261904Y-145981228D01*
X322261904Y-145981228D02*
X322309523Y-145885990D01*
X76166667Y-146409800D02*
X76309524Y-146457419D01*
X76309524Y-146457419D02*
X76547619Y-146457419D01*
X76547619Y-146457419D02*
X76642857Y-146409800D01*
X76642857Y-146409800D02*
X76690476Y-146362180D01*
X76690476Y-146362180D02*
X76738095Y-146266942D01*
X76738095Y-146266942D02*
X76738095Y-146171704D01*
X76738095Y-146171704D02*
X76690476Y-146076466D01*
X76690476Y-146076466D02*
X76642857Y-146028847D01*
X76642857Y-146028847D02*
X76547619Y-145981228D01*
X76547619Y-145981228D02*
X76357143Y-145933609D01*
X76357143Y-145933609D02*
X76261905Y-145885990D01*
X76261905Y-145885990D02*
X76214286Y-145838371D01*
X76214286Y-145838371D02*
X76166667Y-145743133D01*
X76166667Y-145743133D02*
X76166667Y-145647895D01*
X76166667Y-145647895D02*
X76214286Y-145552657D01*
X76214286Y-145552657D02*
X76261905Y-145505038D01*
X76261905Y-145505038D02*
X76357143Y-145457419D01*
X76357143Y-145457419D02*
X76595238Y-145457419D01*
X76595238Y-145457419D02*
X76738095Y-145505038D01*
X77071429Y-145457419D02*
X77309524Y-146457419D01*
X77309524Y-146457419D02*
X77500000Y-145743133D01*
X77500000Y-145743133D02*
X77690476Y-146457419D01*
X77690476Y-146457419D02*
X77928572Y-145457419D01*
X78833333Y-146457419D02*
X78261905Y-146457419D01*
X78547619Y-146457419D02*
X78547619Y-145457419D01*
X78547619Y-145457419D02*
X78452381Y-145600276D01*
X78452381Y-145600276D02*
X78357143Y-145695514D01*
X78357143Y-145695514D02*
X78261905Y-145743133D01*
X109666667Y-146409800D02*
X109809524Y-146457419D01*
X109809524Y-146457419D02*
X110047619Y-146457419D01*
X110047619Y-146457419D02*
X110142857Y-146409800D01*
X110142857Y-146409800D02*
X110190476Y-146362180D01*
X110190476Y-146362180D02*
X110238095Y-146266942D01*
X110238095Y-146266942D02*
X110238095Y-146171704D01*
X110238095Y-146171704D02*
X110190476Y-146076466D01*
X110190476Y-146076466D02*
X110142857Y-146028847D01*
X110142857Y-146028847D02*
X110047619Y-145981228D01*
X110047619Y-145981228D02*
X109857143Y-145933609D01*
X109857143Y-145933609D02*
X109761905Y-145885990D01*
X109761905Y-145885990D02*
X109714286Y-145838371D01*
X109714286Y-145838371D02*
X109666667Y-145743133D01*
X109666667Y-145743133D02*
X109666667Y-145647895D01*
X109666667Y-145647895D02*
X109714286Y-145552657D01*
X109714286Y-145552657D02*
X109761905Y-145505038D01*
X109761905Y-145505038D02*
X109857143Y-145457419D01*
X109857143Y-145457419D02*
X110095238Y-145457419D01*
X110095238Y-145457419D02*
X110238095Y-145505038D01*
X110571429Y-145457419D02*
X110809524Y-146457419D01*
X110809524Y-146457419D02*
X111000000Y-145743133D01*
X111000000Y-145743133D02*
X111190476Y-146457419D01*
X111190476Y-146457419D02*
X111428572Y-145457419D01*
X112285714Y-145457419D02*
X111809524Y-145457419D01*
X111809524Y-145457419D02*
X111761905Y-145933609D01*
X111761905Y-145933609D02*
X111809524Y-145885990D01*
X111809524Y-145885990D02*
X111904762Y-145838371D01*
X111904762Y-145838371D02*
X112142857Y-145838371D01*
X112142857Y-145838371D02*
X112238095Y-145885990D01*
X112238095Y-145885990D02*
X112285714Y-145933609D01*
X112285714Y-145933609D02*
X112333333Y-146028847D01*
X112333333Y-146028847D02*
X112333333Y-146266942D01*
X112333333Y-146266942D02*
X112285714Y-146362180D01*
X112285714Y-146362180D02*
X112238095Y-146409800D01*
X112238095Y-146409800D02*
X112142857Y-146457419D01*
X112142857Y-146457419D02*
X111904762Y-146457419D01*
X111904762Y-146457419D02*
X111809524Y-146409800D01*
X111809524Y-146409800D02*
X111761905Y-146362180D01*
X275190476Y-146409800D02*
X275333333Y-146457419D01*
X275333333Y-146457419D02*
X275571428Y-146457419D01*
X275571428Y-146457419D02*
X275666666Y-146409800D01*
X275666666Y-146409800D02*
X275714285Y-146362180D01*
X275714285Y-146362180D02*
X275761904Y-146266942D01*
X275761904Y-146266942D02*
X275761904Y-146171704D01*
X275761904Y-146171704D02*
X275714285Y-146076466D01*
X275714285Y-146076466D02*
X275666666Y-146028847D01*
X275666666Y-146028847D02*
X275571428Y-145981228D01*
X275571428Y-145981228D02*
X275380952Y-145933609D01*
X275380952Y-145933609D02*
X275285714Y-145885990D01*
X275285714Y-145885990D02*
X275238095Y-145838371D01*
X275238095Y-145838371D02*
X275190476Y-145743133D01*
X275190476Y-145743133D02*
X275190476Y-145647895D01*
X275190476Y-145647895D02*
X275238095Y-145552657D01*
X275238095Y-145552657D02*
X275285714Y-145505038D01*
X275285714Y-145505038D02*
X275380952Y-145457419D01*
X275380952Y-145457419D02*
X275619047Y-145457419D01*
X275619047Y-145457419D02*
X275761904Y-145505038D01*
X276095238Y-145457419D02*
X276333333Y-146457419D01*
X276333333Y-146457419D02*
X276523809Y-145743133D01*
X276523809Y-145743133D02*
X276714285Y-146457419D01*
X276714285Y-146457419D02*
X276952381Y-145457419D01*
X277285714Y-145552657D02*
X277333333Y-145505038D01*
X277333333Y-145505038D02*
X277428571Y-145457419D01*
X277428571Y-145457419D02*
X277666666Y-145457419D01*
X277666666Y-145457419D02*
X277761904Y-145505038D01*
X277761904Y-145505038D02*
X277809523Y-145552657D01*
X277809523Y-145552657D02*
X277857142Y-145647895D01*
X277857142Y-145647895D02*
X277857142Y-145743133D01*
X277857142Y-145743133D02*
X277809523Y-145885990D01*
X277809523Y-145885990D02*
X277238095Y-146457419D01*
X277238095Y-146457419D02*
X277857142Y-146457419D01*
X278714285Y-145790752D02*
X278714285Y-146457419D01*
X278476190Y-145409800D02*
X278238095Y-146124085D01*
X278238095Y-146124085D02*
X278857142Y-146124085D01*
D11*
X155238095Y-119554819D02*
X155238095Y-120364342D01*
X155238095Y-120364342D02*
X155285714Y-120459580D01*
X155285714Y-120459580D02*
X155333333Y-120507200D01*
X155333333Y-120507200D02*
X155428571Y-120554819D01*
X155428571Y-120554819D02*
X155619047Y-120554819D01*
X155619047Y-120554819D02*
X155714285Y-120507200D01*
X155714285Y-120507200D02*
X155761904Y-120459580D01*
X155761904Y-120459580D02*
X155809523Y-120364342D01*
X155809523Y-120364342D02*
X155809523Y-119554819D01*
X156190476Y-119554819D02*
X156809523Y-119554819D01*
X156809523Y-119554819D02*
X156476190Y-119935771D01*
X156476190Y-119935771D02*
X156619047Y-119935771D01*
X156619047Y-119935771D02*
X156714285Y-119983390D01*
X156714285Y-119983390D02*
X156761904Y-120031009D01*
X156761904Y-120031009D02*
X156809523Y-120126247D01*
X156809523Y-120126247D02*
X156809523Y-120364342D01*
X156809523Y-120364342D02*
X156761904Y-120459580D01*
X156761904Y-120459580D02*
X156714285Y-120507200D01*
X156714285Y-120507200D02*
X156619047Y-120554819D01*
X156619047Y-120554819D02*
X156333333Y-120554819D01*
X156333333Y-120554819D02*
X156238095Y-120507200D01*
X156238095Y-120507200D02*
X156190476Y-120459580D01*
X152738095Y-131354819D02*
X153404761Y-131354819D01*
X153404761Y-131354819D02*
X152976190Y-132354819D01*
X154214285Y-131688152D02*
X154214285Y-132354819D01*
X153976190Y-131307200D02*
X153738095Y-132021485D01*
X153738095Y-132021485D02*
X154357142Y-132021485D01*
X154738095Y-132354819D02*
X154738095Y-131354819D01*
X154738095Y-131831009D02*
X155309523Y-131831009D01*
X155309523Y-132354819D02*
X155309523Y-131354819D01*
X156357142Y-132259580D02*
X156309523Y-132307200D01*
X156309523Y-132307200D02*
X156166666Y-132354819D01*
X156166666Y-132354819D02*
X156071428Y-132354819D01*
X156071428Y-132354819D02*
X155928571Y-132307200D01*
X155928571Y-132307200D02*
X155833333Y-132211961D01*
X155833333Y-132211961D02*
X155785714Y-132116723D01*
X155785714Y-132116723D02*
X155738095Y-131926247D01*
X155738095Y-131926247D02*
X155738095Y-131783390D01*
X155738095Y-131783390D02*
X155785714Y-131592914D01*
X155785714Y-131592914D02*
X155833333Y-131497676D01*
X155833333Y-131497676D02*
X155928571Y-131402438D01*
X155928571Y-131402438D02*
X156071428Y-131354819D01*
X156071428Y-131354819D02*
X156166666Y-131354819D01*
X156166666Y-131354819D02*
X156309523Y-131402438D01*
X156309523Y-131402438D02*
X156357142Y-131450057D01*
X157309523Y-132354819D02*
X156738095Y-132354819D01*
X157023809Y-132354819D02*
X157023809Y-131354819D01*
X157023809Y-131354819D02*
X156928571Y-131497676D01*
X156928571Y-131497676D02*
X156833333Y-131592914D01*
X156833333Y-131592914D02*
X156738095Y-131640533D01*
X158214285Y-131354819D02*
X157738095Y-131354819D01*
X157738095Y-131354819D02*
X157690476Y-131831009D01*
X157690476Y-131831009D02*
X157738095Y-131783390D01*
X157738095Y-131783390D02*
X157833333Y-131735771D01*
X157833333Y-131735771D02*
X158071428Y-131735771D01*
X158071428Y-131735771D02*
X158166666Y-131783390D01*
X158166666Y-131783390D02*
X158214285Y-131831009D01*
X158214285Y-131831009D02*
X158261904Y-131926247D01*
X158261904Y-131926247D02*
X158261904Y-132164342D01*
X158261904Y-132164342D02*
X158214285Y-132259580D01*
X158214285Y-132259580D02*
X158166666Y-132307200D01*
X158166666Y-132307200D02*
X158071428Y-132354819D01*
X158071428Y-132354819D02*
X157833333Y-132354819D01*
X157833333Y-132354819D02*
X157738095Y-132307200D01*
X157738095Y-132307200D02*
X157690476Y-132259580D01*
X158595238Y-131354819D02*
X159214285Y-131354819D01*
X159214285Y-131354819D02*
X158880952Y-131735771D01*
X158880952Y-131735771D02*
X159023809Y-131735771D01*
X159023809Y-131735771D02*
X159119047Y-131783390D01*
X159119047Y-131783390D02*
X159166666Y-131831009D01*
X159166666Y-131831009D02*
X159214285Y-131926247D01*
X159214285Y-131926247D02*
X159214285Y-132164342D01*
X159214285Y-132164342D02*
X159166666Y-132259580D01*
X159166666Y-132259580D02*
X159119047Y-132307200D01*
X159119047Y-132307200D02*
X159023809Y-132354819D01*
X159023809Y-132354819D02*
X158738095Y-132354819D01*
X158738095Y-132354819D02*
X158642857Y-132307200D01*
X158642857Y-132307200D02*
X158595238Y-132259580D01*
D10*
X180190476Y-146409800D02*
X180333333Y-146457419D01*
X180333333Y-146457419D02*
X180571428Y-146457419D01*
X180571428Y-146457419D02*
X180666666Y-146409800D01*
X180666666Y-146409800D02*
X180714285Y-146362180D01*
X180714285Y-146362180D02*
X180761904Y-146266942D01*
X180761904Y-146266942D02*
X180761904Y-146171704D01*
X180761904Y-146171704D02*
X180714285Y-146076466D01*
X180714285Y-146076466D02*
X180666666Y-146028847D01*
X180666666Y-146028847D02*
X180571428Y-145981228D01*
X180571428Y-145981228D02*
X180380952Y-145933609D01*
X180380952Y-145933609D02*
X180285714Y-145885990D01*
X180285714Y-145885990D02*
X180238095Y-145838371D01*
X180238095Y-145838371D02*
X180190476Y-145743133D01*
X180190476Y-145743133D02*
X180190476Y-145647895D01*
X180190476Y-145647895D02*
X180238095Y-145552657D01*
X180238095Y-145552657D02*
X180285714Y-145505038D01*
X180285714Y-145505038D02*
X180380952Y-145457419D01*
X180380952Y-145457419D02*
X180619047Y-145457419D01*
X180619047Y-145457419D02*
X180761904Y-145505038D01*
X181095238Y-145457419D02*
X181333333Y-146457419D01*
X181333333Y-146457419D02*
X181523809Y-145743133D01*
X181523809Y-145743133D02*
X181714285Y-146457419D01*
X181714285Y-146457419D02*
X181952381Y-145457419D01*
X182857142Y-146457419D02*
X182285714Y-146457419D01*
X182571428Y-146457419D02*
X182571428Y-145457419D01*
X182571428Y-145457419D02*
X182476190Y-145600276D01*
X182476190Y-145600276D02*
X182380952Y-145695514D01*
X182380952Y-145695514D02*
X182285714Y-145743133D01*
X183190476Y-145457419D02*
X183809523Y-145457419D01*
X183809523Y-145457419D02*
X183476190Y-145838371D01*
X183476190Y-145838371D02*
X183619047Y-145838371D01*
X183619047Y-145838371D02*
X183714285Y-145885990D01*
X183714285Y-145885990D02*
X183761904Y-145933609D01*
X183761904Y-145933609D02*
X183809523Y-146028847D01*
X183809523Y-146028847D02*
X183809523Y-146266942D01*
X183809523Y-146266942D02*
X183761904Y-146362180D01*
X183761904Y-146362180D02*
X183714285Y-146409800D01*
X183714285Y-146409800D02*
X183619047Y-146457419D01*
X183619047Y-146457419D02*
X183333333Y-146457419D01*
X183333333Y-146457419D02*
X183238095Y-146409800D01*
X183238095Y-146409800D02*
X183190476Y-146362180D01*
X188690476Y-146409800D02*
X188833333Y-146457419D01*
X188833333Y-146457419D02*
X189071428Y-146457419D01*
X189071428Y-146457419D02*
X189166666Y-146409800D01*
X189166666Y-146409800D02*
X189214285Y-146362180D01*
X189214285Y-146362180D02*
X189261904Y-146266942D01*
X189261904Y-146266942D02*
X189261904Y-146171704D01*
X189261904Y-146171704D02*
X189214285Y-146076466D01*
X189214285Y-146076466D02*
X189166666Y-146028847D01*
X189166666Y-146028847D02*
X189071428Y-145981228D01*
X189071428Y-145981228D02*
X188880952Y-145933609D01*
X188880952Y-145933609D02*
X188785714Y-145885990D01*
X188785714Y-145885990D02*
X188738095Y-145838371D01*
X188738095Y-145838371D02*
X188690476Y-145743133D01*
X188690476Y-145743133D02*
X188690476Y-145647895D01*
X188690476Y-145647895D02*
X188738095Y-145552657D01*
X188738095Y-145552657D02*
X188785714Y-145505038D01*
X188785714Y-145505038D02*
X188880952Y-145457419D01*
X188880952Y-145457419D02*
X189119047Y-145457419D01*
X189119047Y-145457419D02*
X189261904Y-145505038D01*
X189595238Y-145457419D02*
X189833333Y-146457419D01*
X189833333Y-146457419D02*
X190023809Y-145743133D01*
X190023809Y-145743133D02*
X190214285Y-146457419D01*
X190214285Y-146457419D02*
X190452381Y-145457419D01*
X191357142Y-146457419D02*
X190785714Y-146457419D01*
X191071428Y-146457419D02*
X191071428Y-145457419D01*
X191071428Y-145457419D02*
X190976190Y-145600276D01*
X190976190Y-145600276D02*
X190880952Y-145695514D01*
X190880952Y-145695514D02*
X190785714Y-145743133D01*
X192214285Y-145790752D02*
X192214285Y-146457419D01*
X191976190Y-145409800D02*
X191738095Y-146124085D01*
X191738095Y-146124085D02*
X192357142Y-146124085D01*
D11*
X295238095Y-119554819D02*
X295238095Y-120364342D01*
X295238095Y-120364342D02*
X295285714Y-120459580D01*
X295285714Y-120459580D02*
X295333333Y-120507200D01*
X295333333Y-120507200D02*
X295428571Y-120554819D01*
X295428571Y-120554819D02*
X295619047Y-120554819D01*
X295619047Y-120554819D02*
X295714285Y-120507200D01*
X295714285Y-120507200D02*
X295761904Y-120459580D01*
X295761904Y-120459580D02*
X295809523Y-120364342D01*
X295809523Y-120364342D02*
X295809523Y-119554819D01*
X296761904Y-119554819D02*
X296285714Y-119554819D01*
X296285714Y-119554819D02*
X296238095Y-120031009D01*
X296238095Y-120031009D02*
X296285714Y-119983390D01*
X296285714Y-119983390D02*
X296380952Y-119935771D01*
X296380952Y-119935771D02*
X296619047Y-119935771D01*
X296619047Y-119935771D02*
X296714285Y-119983390D01*
X296714285Y-119983390D02*
X296761904Y-120031009D01*
X296761904Y-120031009D02*
X296809523Y-120126247D01*
X296809523Y-120126247D02*
X296809523Y-120364342D01*
X296809523Y-120364342D02*
X296761904Y-120459580D01*
X296761904Y-120459580D02*
X296714285Y-120507200D01*
X296714285Y-120507200D02*
X296619047Y-120554819D01*
X296619047Y-120554819D02*
X296380952Y-120554819D01*
X296380952Y-120554819D02*
X296285714Y-120507200D01*
X296285714Y-120507200D02*
X296238095Y-120459580D01*
X292738095Y-131354819D02*
X293404761Y-131354819D01*
X293404761Y-131354819D02*
X292976190Y-132354819D01*
X294214285Y-131688152D02*
X294214285Y-132354819D01*
X293976190Y-131307200D02*
X293738095Y-132021485D01*
X293738095Y-132021485D02*
X294357142Y-132021485D01*
X294738095Y-132354819D02*
X294738095Y-131354819D01*
X294738095Y-131831009D02*
X295309523Y-131831009D01*
X295309523Y-132354819D02*
X295309523Y-131354819D01*
X296357142Y-132259580D02*
X296309523Y-132307200D01*
X296309523Y-132307200D02*
X296166666Y-132354819D01*
X296166666Y-132354819D02*
X296071428Y-132354819D01*
X296071428Y-132354819D02*
X295928571Y-132307200D01*
X295928571Y-132307200D02*
X295833333Y-132211961D01*
X295833333Y-132211961D02*
X295785714Y-132116723D01*
X295785714Y-132116723D02*
X295738095Y-131926247D01*
X295738095Y-131926247D02*
X295738095Y-131783390D01*
X295738095Y-131783390D02*
X295785714Y-131592914D01*
X295785714Y-131592914D02*
X295833333Y-131497676D01*
X295833333Y-131497676D02*
X295928571Y-131402438D01*
X295928571Y-131402438D02*
X296071428Y-131354819D01*
X296071428Y-131354819D02*
X296166666Y-131354819D01*
X296166666Y-131354819D02*
X296309523Y-131402438D01*
X296309523Y-131402438D02*
X296357142Y-131450057D01*
X297309523Y-132354819D02*
X296738095Y-132354819D01*
X297023809Y-132354819D02*
X297023809Y-131354819D01*
X297023809Y-131354819D02*
X296928571Y-131497676D01*
X296928571Y-131497676D02*
X296833333Y-131592914D01*
X296833333Y-131592914D02*
X296738095Y-131640533D01*
X298214285Y-131354819D02*
X297738095Y-131354819D01*
X297738095Y-131354819D02*
X297690476Y-131831009D01*
X297690476Y-131831009D02*
X297738095Y-131783390D01*
X297738095Y-131783390D02*
X297833333Y-131735771D01*
X297833333Y-131735771D02*
X298071428Y-131735771D01*
X298071428Y-131735771D02*
X298166666Y-131783390D01*
X298166666Y-131783390D02*
X298214285Y-131831009D01*
X298214285Y-131831009D02*
X298261904Y-131926247D01*
X298261904Y-131926247D02*
X298261904Y-132164342D01*
X298261904Y-132164342D02*
X298214285Y-132259580D01*
X298214285Y-132259580D02*
X298166666Y-132307200D01*
X298166666Y-132307200D02*
X298071428Y-132354819D01*
X298071428Y-132354819D02*
X297833333Y-132354819D01*
X297833333Y-132354819D02*
X297738095Y-132307200D01*
X297738095Y-132307200D02*
X297690476Y-132259580D01*
X298595238Y-131354819D02*
X299214285Y-131354819D01*
X299214285Y-131354819D02*
X298880952Y-131735771D01*
X298880952Y-131735771D02*
X299023809Y-131735771D01*
X299023809Y-131735771D02*
X299119047Y-131783390D01*
X299119047Y-131783390D02*
X299166666Y-131831009D01*
X299166666Y-131831009D02*
X299214285Y-131926247D01*
X299214285Y-131926247D02*
X299214285Y-132164342D01*
X299214285Y-132164342D02*
X299166666Y-132259580D01*
X299166666Y-132259580D02*
X299119047Y-132307200D01*
X299119047Y-132307200D02*
X299023809Y-132354819D01*
X299023809Y-132354819D02*
X298738095Y-132354819D01*
X298738095Y-132354819D02*
X298642857Y-132307200D01*
X298642857Y-132307200D02*
X298595238Y-132259580D01*
D10*
X126666667Y-146409800D02*
X126809524Y-146457419D01*
X126809524Y-146457419D02*
X127047619Y-146457419D01*
X127047619Y-146457419D02*
X127142857Y-146409800D01*
X127142857Y-146409800D02*
X127190476Y-146362180D01*
X127190476Y-146362180D02*
X127238095Y-146266942D01*
X127238095Y-146266942D02*
X127238095Y-146171704D01*
X127238095Y-146171704D02*
X127190476Y-146076466D01*
X127190476Y-146076466D02*
X127142857Y-146028847D01*
X127142857Y-146028847D02*
X127047619Y-145981228D01*
X127047619Y-145981228D02*
X126857143Y-145933609D01*
X126857143Y-145933609D02*
X126761905Y-145885990D01*
X126761905Y-145885990D02*
X126714286Y-145838371D01*
X126714286Y-145838371D02*
X126666667Y-145743133D01*
X126666667Y-145743133D02*
X126666667Y-145647895D01*
X126666667Y-145647895D02*
X126714286Y-145552657D01*
X126714286Y-145552657D02*
X126761905Y-145505038D01*
X126761905Y-145505038D02*
X126857143Y-145457419D01*
X126857143Y-145457419D02*
X127095238Y-145457419D01*
X127095238Y-145457419D02*
X127238095Y-145505038D01*
X127571429Y-145457419D02*
X127809524Y-146457419D01*
X127809524Y-146457419D02*
X128000000Y-145743133D01*
X128000000Y-145743133D02*
X128190476Y-146457419D01*
X128190476Y-146457419D02*
X128428572Y-145457419D01*
X128714286Y-145457419D02*
X129380952Y-145457419D01*
X129380952Y-145457419D02*
X128952381Y-146457419D01*
X302440476Y-146409800D02*
X302583333Y-146457419D01*
X302583333Y-146457419D02*
X302821428Y-146457419D01*
X302821428Y-146457419D02*
X302916666Y-146409800D01*
X302916666Y-146409800D02*
X302964285Y-146362180D01*
X302964285Y-146362180D02*
X303011904Y-146266942D01*
X303011904Y-146266942D02*
X303011904Y-146171704D01*
X303011904Y-146171704D02*
X302964285Y-146076466D01*
X302964285Y-146076466D02*
X302916666Y-146028847D01*
X302916666Y-146028847D02*
X302821428Y-145981228D01*
X302821428Y-145981228D02*
X302630952Y-145933609D01*
X302630952Y-145933609D02*
X302535714Y-145885990D01*
X302535714Y-145885990D02*
X302488095Y-145838371D01*
X302488095Y-145838371D02*
X302440476Y-145743133D01*
X302440476Y-145743133D02*
X302440476Y-145647895D01*
X302440476Y-145647895D02*
X302488095Y-145552657D01*
X302488095Y-145552657D02*
X302535714Y-145505038D01*
X302535714Y-145505038D02*
X302630952Y-145457419D01*
X302630952Y-145457419D02*
X302869047Y-145457419D01*
X302869047Y-145457419D02*
X303011904Y-145505038D01*
X303345238Y-145457419D02*
X303583333Y-146457419D01*
X303583333Y-146457419D02*
X303773809Y-145743133D01*
X303773809Y-145743133D02*
X303964285Y-146457419D01*
X303964285Y-146457419D02*
X304202381Y-145457419D01*
X304535714Y-145552657D02*
X304583333Y-145505038D01*
X304583333Y-145505038D02*
X304678571Y-145457419D01*
X304678571Y-145457419D02*
X304916666Y-145457419D01*
X304916666Y-145457419D02*
X305011904Y-145505038D01*
X305011904Y-145505038D02*
X305059523Y-145552657D01*
X305059523Y-145552657D02*
X305107142Y-145647895D01*
X305107142Y-145647895D02*
X305107142Y-145743133D01*
X305107142Y-145743133D02*
X305059523Y-145885990D01*
X305059523Y-145885990D02*
X304488095Y-146457419D01*
X304488095Y-146457419D02*
X305107142Y-146457419D01*
X305440476Y-145457419D02*
X306107142Y-145457419D01*
X306107142Y-145457419D02*
X305678571Y-146457419D01*
X310440476Y-146409800D02*
X310583333Y-146457419D01*
X310583333Y-146457419D02*
X310821428Y-146457419D01*
X310821428Y-146457419D02*
X310916666Y-146409800D01*
X310916666Y-146409800D02*
X310964285Y-146362180D01*
X310964285Y-146362180D02*
X311011904Y-146266942D01*
X311011904Y-146266942D02*
X311011904Y-146171704D01*
X311011904Y-146171704D02*
X310964285Y-146076466D01*
X310964285Y-146076466D02*
X310916666Y-146028847D01*
X310916666Y-146028847D02*
X310821428Y-145981228D01*
X310821428Y-145981228D02*
X310630952Y-145933609D01*
X310630952Y-145933609D02*
X310535714Y-145885990D01*
X310535714Y-145885990D02*
X310488095Y-145838371D01*
X310488095Y-145838371D02*
X310440476Y-145743133D01*
X310440476Y-145743133D02*
X310440476Y-145647895D01*
X310440476Y-145647895D02*
X310488095Y-145552657D01*
X310488095Y-145552657D02*
X310535714Y-145505038D01*
X310535714Y-145505038D02*
X310630952Y-145457419D01*
X310630952Y-145457419D02*
X310869047Y-145457419D01*
X310869047Y-145457419D02*
X311011904Y-145505038D01*
X311345238Y-145457419D02*
X311583333Y-146457419D01*
X311583333Y-146457419D02*
X311773809Y-145743133D01*
X311773809Y-145743133D02*
X311964285Y-146457419D01*
X311964285Y-146457419D02*
X312202381Y-145457419D01*
X312535714Y-145552657D02*
X312583333Y-145505038D01*
X312583333Y-145505038D02*
X312678571Y-145457419D01*
X312678571Y-145457419D02*
X312916666Y-145457419D01*
X312916666Y-145457419D02*
X313011904Y-145505038D01*
X313011904Y-145505038D02*
X313059523Y-145552657D01*
X313059523Y-145552657D02*
X313107142Y-145647895D01*
X313107142Y-145647895D02*
X313107142Y-145743133D01*
X313107142Y-145743133D02*
X313059523Y-145885990D01*
X313059523Y-145885990D02*
X312488095Y-146457419D01*
X312488095Y-146457419D02*
X313107142Y-146457419D01*
X313678571Y-145885990D02*
X313583333Y-145838371D01*
X313583333Y-145838371D02*
X313535714Y-145790752D01*
X313535714Y-145790752D02*
X313488095Y-145695514D01*
X313488095Y-145695514D02*
X313488095Y-145647895D01*
X313488095Y-145647895D02*
X313535714Y-145552657D01*
X313535714Y-145552657D02*
X313583333Y-145505038D01*
X313583333Y-145505038D02*
X313678571Y-145457419D01*
X313678571Y-145457419D02*
X313869047Y-145457419D01*
X313869047Y-145457419D02*
X313964285Y-145505038D01*
X313964285Y-145505038D02*
X314011904Y-145552657D01*
X314011904Y-145552657D02*
X314059523Y-145647895D01*
X314059523Y-145647895D02*
X314059523Y-145695514D01*
X314059523Y-145695514D02*
X314011904Y-145790752D01*
X314011904Y-145790752D02*
X313964285Y-145838371D01*
X313964285Y-145838371D02*
X313869047Y-145885990D01*
X313869047Y-145885990D02*
X313678571Y-145885990D01*
X313678571Y-145885990D02*
X313583333Y-145933609D01*
X313583333Y-145933609D02*
X313535714Y-145981228D01*
X313535714Y-145981228D02*
X313488095Y-146076466D01*
X313488095Y-146076466D02*
X313488095Y-146266942D01*
X313488095Y-146266942D02*
X313535714Y-146362180D01*
X313535714Y-146362180D02*
X313583333Y-146409800D01*
X313583333Y-146409800D02*
X313678571Y-146457419D01*
X313678571Y-146457419D02*
X313869047Y-146457419D01*
X313869047Y-146457419D02*
X313964285Y-146409800D01*
X313964285Y-146409800D02*
X314011904Y-146362180D01*
X314011904Y-146362180D02*
X314059523Y-146266942D01*
X314059523Y-146266942D02*
X314059523Y-146076466D01*
X314059523Y-146076466D02*
X314011904Y-145981228D01*
X314011904Y-145981228D02*
X313964285Y-145933609D01*
X313964285Y-145933609D02*
X313869047Y-145885990D01*
X240690476Y-146409800D02*
X240833333Y-146457419D01*
X240833333Y-146457419D02*
X241071428Y-146457419D01*
X241071428Y-146457419D02*
X241166666Y-146409800D01*
X241166666Y-146409800D02*
X241214285Y-146362180D01*
X241214285Y-146362180D02*
X241261904Y-146266942D01*
X241261904Y-146266942D02*
X241261904Y-146171704D01*
X241261904Y-146171704D02*
X241214285Y-146076466D01*
X241214285Y-146076466D02*
X241166666Y-146028847D01*
X241166666Y-146028847D02*
X241071428Y-145981228D01*
X241071428Y-145981228D02*
X240880952Y-145933609D01*
X240880952Y-145933609D02*
X240785714Y-145885990D01*
X240785714Y-145885990D02*
X240738095Y-145838371D01*
X240738095Y-145838371D02*
X240690476Y-145743133D01*
X240690476Y-145743133D02*
X240690476Y-145647895D01*
X240690476Y-145647895D02*
X240738095Y-145552657D01*
X240738095Y-145552657D02*
X240785714Y-145505038D01*
X240785714Y-145505038D02*
X240880952Y-145457419D01*
X240880952Y-145457419D02*
X241119047Y-145457419D01*
X241119047Y-145457419D02*
X241261904Y-145505038D01*
X241595238Y-145457419D02*
X241833333Y-146457419D01*
X241833333Y-146457419D02*
X242023809Y-145743133D01*
X242023809Y-145743133D02*
X242214285Y-146457419D01*
X242214285Y-146457419D02*
X242452381Y-145457419D01*
X242785714Y-145552657D02*
X242833333Y-145505038D01*
X242833333Y-145505038D02*
X242928571Y-145457419D01*
X242928571Y-145457419D02*
X243166666Y-145457419D01*
X243166666Y-145457419D02*
X243261904Y-145505038D01*
X243261904Y-145505038D02*
X243309523Y-145552657D01*
X243309523Y-145552657D02*
X243357142Y-145647895D01*
X243357142Y-145647895D02*
X243357142Y-145743133D01*
X243357142Y-145743133D02*
X243309523Y-145885990D01*
X243309523Y-145885990D02*
X242738095Y-146457419D01*
X242738095Y-146457419D02*
X243357142Y-146457419D01*
X243976190Y-145457419D02*
X244071428Y-145457419D01*
X244071428Y-145457419D02*
X244166666Y-145505038D01*
X244166666Y-145505038D02*
X244214285Y-145552657D01*
X244214285Y-145552657D02*
X244261904Y-145647895D01*
X244261904Y-145647895D02*
X244309523Y-145838371D01*
X244309523Y-145838371D02*
X244309523Y-146076466D01*
X244309523Y-146076466D02*
X244261904Y-146266942D01*
X244261904Y-146266942D02*
X244214285Y-146362180D01*
X244214285Y-146362180D02*
X244166666Y-146409800D01*
X244166666Y-146409800D02*
X244071428Y-146457419D01*
X244071428Y-146457419D02*
X243976190Y-146457419D01*
X243976190Y-146457419D02*
X243880952Y-146409800D01*
X243880952Y-146409800D02*
X243833333Y-146362180D01*
X243833333Y-146362180D02*
X243785714Y-146266942D01*
X243785714Y-146266942D02*
X243738095Y-146076466D01*
X243738095Y-146076466D02*
X243738095Y-145838371D01*
X243738095Y-145838371D02*
X243785714Y-145647895D01*
X243785714Y-145647895D02*
X243833333Y-145552657D01*
X243833333Y-145552657D02*
X243880952Y-145505038D01*
X243880952Y-145505038D02*
X243976190Y-145457419D01*
D11*
X224238095Y-119554819D02*
X224238095Y-120364342D01*
X224238095Y-120364342D02*
X224285714Y-120459580D01*
X224285714Y-120459580D02*
X224333333Y-120507200D01*
X224333333Y-120507200D02*
X224428571Y-120554819D01*
X224428571Y-120554819D02*
X224619047Y-120554819D01*
X224619047Y-120554819D02*
X224714285Y-120507200D01*
X224714285Y-120507200D02*
X224761904Y-120459580D01*
X224761904Y-120459580D02*
X224809523Y-120364342D01*
X224809523Y-120364342D02*
X224809523Y-119554819D01*
X225714285Y-119888152D02*
X225714285Y-120554819D01*
X225476190Y-119507200D02*
X225238095Y-120221485D01*
X225238095Y-120221485D02*
X225857142Y-120221485D01*
X221738095Y-131354819D02*
X222404761Y-131354819D01*
X222404761Y-131354819D02*
X221976190Y-132354819D01*
X223214285Y-131688152D02*
X223214285Y-132354819D01*
X222976190Y-131307200D02*
X222738095Y-132021485D01*
X222738095Y-132021485D02*
X223357142Y-132021485D01*
X223738095Y-132354819D02*
X223738095Y-131354819D01*
X223738095Y-131831009D02*
X224309523Y-131831009D01*
X224309523Y-132354819D02*
X224309523Y-131354819D01*
X225357142Y-132259580D02*
X225309523Y-132307200D01*
X225309523Y-132307200D02*
X225166666Y-132354819D01*
X225166666Y-132354819D02*
X225071428Y-132354819D01*
X225071428Y-132354819D02*
X224928571Y-132307200D01*
X224928571Y-132307200D02*
X224833333Y-132211961D01*
X224833333Y-132211961D02*
X224785714Y-132116723D01*
X224785714Y-132116723D02*
X224738095Y-131926247D01*
X224738095Y-131926247D02*
X224738095Y-131783390D01*
X224738095Y-131783390D02*
X224785714Y-131592914D01*
X224785714Y-131592914D02*
X224833333Y-131497676D01*
X224833333Y-131497676D02*
X224928571Y-131402438D01*
X224928571Y-131402438D02*
X225071428Y-131354819D01*
X225071428Y-131354819D02*
X225166666Y-131354819D01*
X225166666Y-131354819D02*
X225309523Y-131402438D01*
X225309523Y-131402438D02*
X225357142Y-131450057D01*
X226309523Y-132354819D02*
X225738095Y-132354819D01*
X226023809Y-132354819D02*
X226023809Y-131354819D01*
X226023809Y-131354819D02*
X225928571Y-131497676D01*
X225928571Y-131497676D02*
X225833333Y-131592914D01*
X225833333Y-131592914D02*
X225738095Y-131640533D01*
X227214285Y-131354819D02*
X226738095Y-131354819D01*
X226738095Y-131354819D02*
X226690476Y-131831009D01*
X226690476Y-131831009D02*
X226738095Y-131783390D01*
X226738095Y-131783390D02*
X226833333Y-131735771D01*
X226833333Y-131735771D02*
X227071428Y-131735771D01*
X227071428Y-131735771D02*
X227166666Y-131783390D01*
X227166666Y-131783390D02*
X227214285Y-131831009D01*
X227214285Y-131831009D02*
X227261904Y-131926247D01*
X227261904Y-131926247D02*
X227261904Y-132164342D01*
X227261904Y-132164342D02*
X227214285Y-132259580D01*
X227214285Y-132259580D02*
X227166666Y-132307200D01*
X227166666Y-132307200D02*
X227071428Y-132354819D01*
X227071428Y-132354819D02*
X226833333Y-132354819D01*
X226833333Y-132354819D02*
X226738095Y-132307200D01*
X226738095Y-132307200D02*
X226690476Y-132259580D01*
X227595238Y-131354819D02*
X228214285Y-131354819D01*
X228214285Y-131354819D02*
X227880952Y-131735771D01*
X227880952Y-131735771D02*
X228023809Y-131735771D01*
X228023809Y-131735771D02*
X228119047Y-131783390D01*
X228119047Y-131783390D02*
X228166666Y-131831009D01*
X228166666Y-131831009D02*
X228214285Y-131926247D01*
X228214285Y-131926247D02*
X228214285Y-132164342D01*
X228214285Y-132164342D02*
X228166666Y-132259580D01*
X228166666Y-132259580D02*
X228119047Y-132307200D01*
X228119047Y-132307200D02*
X228023809Y-132354819D01*
X228023809Y-132354819D02*
X227738095Y-132354819D01*
X227738095Y-132354819D02*
X227642857Y-132307200D01*
X227642857Y-132307200D02*
X227595238Y-132259580D01*
D10*
X205690476Y-146409800D02*
X205833333Y-146457419D01*
X205833333Y-146457419D02*
X206071428Y-146457419D01*
X206071428Y-146457419D02*
X206166666Y-146409800D01*
X206166666Y-146409800D02*
X206214285Y-146362180D01*
X206214285Y-146362180D02*
X206261904Y-146266942D01*
X206261904Y-146266942D02*
X206261904Y-146171704D01*
X206261904Y-146171704D02*
X206214285Y-146076466D01*
X206214285Y-146076466D02*
X206166666Y-146028847D01*
X206166666Y-146028847D02*
X206071428Y-145981228D01*
X206071428Y-145981228D02*
X205880952Y-145933609D01*
X205880952Y-145933609D02*
X205785714Y-145885990D01*
X205785714Y-145885990D02*
X205738095Y-145838371D01*
X205738095Y-145838371D02*
X205690476Y-145743133D01*
X205690476Y-145743133D02*
X205690476Y-145647895D01*
X205690476Y-145647895D02*
X205738095Y-145552657D01*
X205738095Y-145552657D02*
X205785714Y-145505038D01*
X205785714Y-145505038D02*
X205880952Y-145457419D01*
X205880952Y-145457419D02*
X206119047Y-145457419D01*
X206119047Y-145457419D02*
X206261904Y-145505038D01*
X206595238Y-145457419D02*
X206833333Y-146457419D01*
X206833333Y-146457419D02*
X207023809Y-145743133D01*
X207023809Y-145743133D02*
X207214285Y-146457419D01*
X207214285Y-146457419D02*
X207452381Y-145457419D01*
X208357142Y-146457419D02*
X207785714Y-146457419D01*
X208071428Y-146457419D02*
X208071428Y-145457419D01*
X208071428Y-145457419D02*
X207976190Y-145600276D01*
X207976190Y-145600276D02*
X207880952Y-145695514D01*
X207880952Y-145695514D02*
X207785714Y-145743133D01*
X209214285Y-145457419D02*
X209023809Y-145457419D01*
X209023809Y-145457419D02*
X208928571Y-145505038D01*
X208928571Y-145505038D02*
X208880952Y-145552657D01*
X208880952Y-145552657D02*
X208785714Y-145695514D01*
X208785714Y-145695514D02*
X208738095Y-145885990D01*
X208738095Y-145885990D02*
X208738095Y-146266942D01*
X208738095Y-146266942D02*
X208785714Y-146362180D01*
X208785714Y-146362180D02*
X208833333Y-146409800D01*
X208833333Y-146409800D02*
X208928571Y-146457419D01*
X208928571Y-146457419D02*
X209119047Y-146457419D01*
X209119047Y-146457419D02*
X209214285Y-146409800D01*
X209214285Y-146409800D02*
X209261904Y-146362180D01*
X209261904Y-146362180D02*
X209309523Y-146266942D01*
X209309523Y-146266942D02*
X209309523Y-146028847D01*
X209309523Y-146028847D02*
X209261904Y-145933609D01*
X209261904Y-145933609D02*
X209214285Y-145885990D01*
X209214285Y-145885990D02*
X209119047Y-145838371D01*
X209119047Y-145838371D02*
X208928571Y-145838371D01*
X208928571Y-145838371D02*
X208833333Y-145885990D01*
X208833333Y-145885990D02*
X208785714Y-145933609D01*
X208785714Y-145933609D02*
X208738095Y-146028847D01*
X170690476Y-146409800D02*
X170833333Y-146457419D01*
X170833333Y-146457419D02*
X171071428Y-146457419D01*
X171071428Y-146457419D02*
X171166666Y-146409800D01*
X171166666Y-146409800D02*
X171214285Y-146362180D01*
X171214285Y-146362180D02*
X171261904Y-146266942D01*
X171261904Y-146266942D02*
X171261904Y-146171704D01*
X171261904Y-146171704D02*
X171214285Y-146076466D01*
X171214285Y-146076466D02*
X171166666Y-146028847D01*
X171166666Y-146028847D02*
X171071428Y-145981228D01*
X171071428Y-145981228D02*
X170880952Y-145933609D01*
X170880952Y-145933609D02*
X170785714Y-145885990D01*
X170785714Y-145885990D02*
X170738095Y-145838371D01*
X170738095Y-145838371D02*
X170690476Y-145743133D01*
X170690476Y-145743133D02*
X170690476Y-145647895D01*
X170690476Y-145647895D02*
X170738095Y-145552657D01*
X170738095Y-145552657D02*
X170785714Y-145505038D01*
X170785714Y-145505038D02*
X170880952Y-145457419D01*
X170880952Y-145457419D02*
X171119047Y-145457419D01*
X171119047Y-145457419D02*
X171261904Y-145505038D01*
X171595238Y-145457419D02*
X171833333Y-146457419D01*
X171833333Y-146457419D02*
X172023809Y-145743133D01*
X172023809Y-145743133D02*
X172214285Y-146457419D01*
X172214285Y-146457419D02*
X172452381Y-145457419D01*
X173357142Y-146457419D02*
X172785714Y-146457419D01*
X173071428Y-146457419D02*
X173071428Y-145457419D01*
X173071428Y-145457419D02*
X172976190Y-145600276D01*
X172976190Y-145600276D02*
X172880952Y-145695514D01*
X172880952Y-145695514D02*
X172785714Y-145743133D01*
X173738095Y-145552657D02*
X173785714Y-145505038D01*
X173785714Y-145505038D02*
X173880952Y-145457419D01*
X173880952Y-145457419D02*
X174119047Y-145457419D01*
X174119047Y-145457419D02*
X174214285Y-145505038D01*
X174214285Y-145505038D02*
X174261904Y-145552657D01*
X174261904Y-145552657D02*
X174309523Y-145647895D01*
X174309523Y-145647895D02*
X174309523Y-145743133D01*
X174309523Y-145743133D02*
X174261904Y-145885990D01*
X174261904Y-145885990D02*
X173690476Y-146457419D01*
X173690476Y-146457419D02*
X174309523Y-146457419D01*
X266690476Y-146409800D02*
X266833333Y-146457419D01*
X266833333Y-146457419D02*
X267071428Y-146457419D01*
X267071428Y-146457419D02*
X267166666Y-146409800D01*
X267166666Y-146409800D02*
X267214285Y-146362180D01*
X267214285Y-146362180D02*
X267261904Y-146266942D01*
X267261904Y-146266942D02*
X267261904Y-146171704D01*
X267261904Y-146171704D02*
X267214285Y-146076466D01*
X267214285Y-146076466D02*
X267166666Y-146028847D01*
X267166666Y-146028847D02*
X267071428Y-145981228D01*
X267071428Y-145981228D02*
X266880952Y-145933609D01*
X266880952Y-145933609D02*
X266785714Y-145885990D01*
X266785714Y-145885990D02*
X266738095Y-145838371D01*
X266738095Y-145838371D02*
X266690476Y-145743133D01*
X266690476Y-145743133D02*
X266690476Y-145647895D01*
X266690476Y-145647895D02*
X266738095Y-145552657D01*
X266738095Y-145552657D02*
X266785714Y-145505038D01*
X266785714Y-145505038D02*
X266880952Y-145457419D01*
X266880952Y-145457419D02*
X267119047Y-145457419D01*
X267119047Y-145457419D02*
X267261904Y-145505038D01*
X267595238Y-145457419D02*
X267833333Y-146457419D01*
X267833333Y-146457419D02*
X268023809Y-145743133D01*
X268023809Y-145743133D02*
X268214285Y-146457419D01*
X268214285Y-146457419D02*
X268452381Y-145457419D01*
X268785714Y-145552657D02*
X268833333Y-145505038D01*
X268833333Y-145505038D02*
X268928571Y-145457419D01*
X268928571Y-145457419D02*
X269166666Y-145457419D01*
X269166666Y-145457419D02*
X269261904Y-145505038D01*
X269261904Y-145505038D02*
X269309523Y-145552657D01*
X269309523Y-145552657D02*
X269357142Y-145647895D01*
X269357142Y-145647895D02*
X269357142Y-145743133D01*
X269357142Y-145743133D02*
X269309523Y-145885990D01*
X269309523Y-145885990D02*
X268738095Y-146457419D01*
X268738095Y-146457419D02*
X269357142Y-146457419D01*
X269690476Y-145457419D02*
X270309523Y-145457419D01*
X270309523Y-145457419D02*
X269976190Y-145838371D01*
X269976190Y-145838371D02*
X270119047Y-145838371D01*
X270119047Y-145838371D02*
X270214285Y-145885990D01*
X270214285Y-145885990D02*
X270261904Y-145933609D01*
X270261904Y-145933609D02*
X270309523Y-146028847D01*
X270309523Y-146028847D02*
X270309523Y-146266942D01*
X270309523Y-146266942D02*
X270261904Y-146362180D01*
X270261904Y-146362180D02*
X270214285Y-146409800D01*
X270214285Y-146409800D02*
X270119047Y-146457419D01*
X270119047Y-146457419D02*
X269833333Y-146457419D01*
X269833333Y-146457419D02*
X269738095Y-146409800D01*
X269738095Y-146409800D02*
X269690476Y-146362180D01*
X293690476Y-146409800D02*
X293833333Y-146457419D01*
X293833333Y-146457419D02*
X294071428Y-146457419D01*
X294071428Y-146457419D02*
X294166666Y-146409800D01*
X294166666Y-146409800D02*
X294214285Y-146362180D01*
X294214285Y-146362180D02*
X294261904Y-146266942D01*
X294261904Y-146266942D02*
X294261904Y-146171704D01*
X294261904Y-146171704D02*
X294214285Y-146076466D01*
X294214285Y-146076466D02*
X294166666Y-146028847D01*
X294166666Y-146028847D02*
X294071428Y-145981228D01*
X294071428Y-145981228D02*
X293880952Y-145933609D01*
X293880952Y-145933609D02*
X293785714Y-145885990D01*
X293785714Y-145885990D02*
X293738095Y-145838371D01*
X293738095Y-145838371D02*
X293690476Y-145743133D01*
X293690476Y-145743133D02*
X293690476Y-145647895D01*
X293690476Y-145647895D02*
X293738095Y-145552657D01*
X293738095Y-145552657D02*
X293785714Y-145505038D01*
X293785714Y-145505038D02*
X293880952Y-145457419D01*
X293880952Y-145457419D02*
X294119047Y-145457419D01*
X294119047Y-145457419D02*
X294261904Y-145505038D01*
X294595238Y-145457419D02*
X294833333Y-146457419D01*
X294833333Y-146457419D02*
X295023809Y-145743133D01*
X295023809Y-145743133D02*
X295214285Y-146457419D01*
X295214285Y-146457419D02*
X295452381Y-145457419D01*
X295785714Y-145552657D02*
X295833333Y-145505038D01*
X295833333Y-145505038D02*
X295928571Y-145457419D01*
X295928571Y-145457419D02*
X296166666Y-145457419D01*
X296166666Y-145457419D02*
X296261904Y-145505038D01*
X296261904Y-145505038D02*
X296309523Y-145552657D01*
X296309523Y-145552657D02*
X296357142Y-145647895D01*
X296357142Y-145647895D02*
X296357142Y-145743133D01*
X296357142Y-145743133D02*
X296309523Y-145885990D01*
X296309523Y-145885990D02*
X295738095Y-146457419D01*
X295738095Y-146457419D02*
X296357142Y-146457419D01*
X297214285Y-145457419D02*
X297023809Y-145457419D01*
X297023809Y-145457419D02*
X296928571Y-145505038D01*
X296928571Y-145505038D02*
X296880952Y-145552657D01*
X296880952Y-145552657D02*
X296785714Y-145695514D01*
X296785714Y-145695514D02*
X296738095Y-145885990D01*
X296738095Y-145885990D02*
X296738095Y-146266942D01*
X296738095Y-146266942D02*
X296785714Y-146362180D01*
X296785714Y-146362180D02*
X296833333Y-146409800D01*
X296833333Y-146409800D02*
X296928571Y-146457419D01*
X296928571Y-146457419D02*
X297119047Y-146457419D01*
X297119047Y-146457419D02*
X297214285Y-146409800D01*
X297214285Y-146409800D02*
X297261904Y-146362180D01*
X297261904Y-146362180D02*
X297309523Y-146266942D01*
X297309523Y-146266942D02*
X297309523Y-146028847D01*
X297309523Y-146028847D02*
X297261904Y-145933609D01*
X297261904Y-145933609D02*
X297214285Y-145885990D01*
X297214285Y-145885990D02*
X297119047Y-145838371D01*
X297119047Y-145838371D02*
X296928571Y-145838371D01*
X296928571Y-145838371D02*
X296833333Y-145885990D01*
X296833333Y-145885990D02*
X296785714Y-145933609D01*
X296785714Y-145933609D02*
X296738095Y-146028847D01*
X161690476Y-146409800D02*
X161833333Y-146457419D01*
X161833333Y-146457419D02*
X162071428Y-146457419D01*
X162071428Y-146457419D02*
X162166666Y-146409800D01*
X162166666Y-146409800D02*
X162214285Y-146362180D01*
X162214285Y-146362180D02*
X162261904Y-146266942D01*
X162261904Y-146266942D02*
X162261904Y-146171704D01*
X162261904Y-146171704D02*
X162214285Y-146076466D01*
X162214285Y-146076466D02*
X162166666Y-146028847D01*
X162166666Y-146028847D02*
X162071428Y-145981228D01*
X162071428Y-145981228D02*
X161880952Y-145933609D01*
X161880952Y-145933609D02*
X161785714Y-145885990D01*
X161785714Y-145885990D02*
X161738095Y-145838371D01*
X161738095Y-145838371D02*
X161690476Y-145743133D01*
X161690476Y-145743133D02*
X161690476Y-145647895D01*
X161690476Y-145647895D02*
X161738095Y-145552657D01*
X161738095Y-145552657D02*
X161785714Y-145505038D01*
X161785714Y-145505038D02*
X161880952Y-145457419D01*
X161880952Y-145457419D02*
X162119047Y-145457419D01*
X162119047Y-145457419D02*
X162261904Y-145505038D01*
X162595238Y-145457419D02*
X162833333Y-146457419D01*
X162833333Y-146457419D02*
X163023809Y-145743133D01*
X163023809Y-145743133D02*
X163214285Y-146457419D01*
X163214285Y-146457419D02*
X163452381Y-145457419D01*
X164357142Y-146457419D02*
X163785714Y-146457419D01*
X164071428Y-146457419D02*
X164071428Y-145457419D01*
X164071428Y-145457419D02*
X163976190Y-145600276D01*
X163976190Y-145600276D02*
X163880952Y-145695514D01*
X163880952Y-145695514D02*
X163785714Y-145743133D01*
X165309523Y-146457419D02*
X164738095Y-146457419D01*
X165023809Y-146457419D02*
X165023809Y-145457419D01*
X165023809Y-145457419D02*
X164928571Y-145600276D01*
X164928571Y-145600276D02*
X164833333Y-145695514D01*
X164833333Y-145695514D02*
X164738095Y-145743133D01*
D12*
%TO.C,U2*%
X109000000Y-120940000D02*
X105550000Y-120940000D01*
X109000000Y-120940000D02*
X110950000Y-120940000D01*
X109000000Y-131060000D02*
X107050000Y-131060000D01*
X109000000Y-131060000D02*
X110950000Y-131060000D01*
%TO.C,C12*%
X202061252Y-128735000D02*
X201538748Y-128735000D01*
X202061252Y-127265000D02*
X201538748Y-127265000D01*
%TO.C,U3*%
X156000000Y-120940000D02*
X152550000Y-120940000D01*
X156000000Y-120940000D02*
X157950000Y-120940000D01*
X156000000Y-131060000D02*
X154050000Y-131060000D01*
X156000000Y-131060000D02*
X157950000Y-131060000D01*
%TO.C,U5*%
X296000000Y-120940000D02*
X292550000Y-120940000D01*
X296000000Y-120940000D02*
X297950000Y-120940000D01*
X296000000Y-131060000D02*
X294050000Y-131060000D01*
X296000000Y-131060000D02*
X297950000Y-131060000D01*
%TO.C,U4*%
X225000000Y-120940000D02*
X221550000Y-120940000D01*
X225000000Y-120940000D02*
X226950000Y-120940000D01*
X225000000Y-131060000D02*
X223050000Y-131060000D01*
X225000000Y-131060000D02*
X226950000Y-131060000D01*
%TD*%
M02*
