%TF.GenerationSoftware,KiCad,Pcbnew,7.0.10+dfsg-1*%
%TF.CreationDate,2024-02-26T16:50:10+02:00*%
%TF.ProjectId,pss20midi,70737332-306d-4696-9469-2e6b69636164,rev?*%
%TF.SameCoordinates,Original*%
%TF.FileFunction,Paste,Bot*%
%TF.FilePolarity,Positive*%
%FSLAX46Y46*%
G04 Gerber Fmt 4.6, Leading zero omitted, Abs format (unit mm)*
G04 Created by KiCad (PCBNEW 7.0.10+dfsg-1) date 2024-02-26 16:50:10*
%MOMM*%
%LPD*%
G01*
G04 APERTURE LIST*
G04 Aperture macros list*
%AMRoundRect*
0 Rectangle with rounded corners*
0 $1 Rounding radius*
0 $2 $3 $4 $5 $6 $7 $8 $9 X,Y pos of 4 corners*
0 Add a 4 corners polygon primitive as box body*
4,1,4,$2,$3,$4,$5,$6,$7,$8,$9,$2,$3,0*
0 Add four circle primitives for the rounded corners*
1,1,$1+$1,$2,$3*
1,1,$1+$1,$4,$5*
1,1,$1+$1,$6,$7*
1,1,$1+$1,$8,$9*
0 Add four rect primitives between the rounded corners*
20,1,$1+$1,$2,$3,$4,$5,0*
20,1,$1+$1,$4,$5,$6,$7,0*
20,1,$1+$1,$6,$7,$8,$9,0*
20,1,$1+$1,$8,$9,$2,$3,0*%
G04 Aperture macros list end*
%ADD10RoundRect,0.250000X-0.475000X0.337500X-0.475000X-0.337500X0.475000X-0.337500X0.475000X0.337500X0*%
%ADD11RoundRect,0.250000X0.450000X-0.350000X0.450000X0.350000X-0.450000X0.350000X-0.450000X-0.350000X0*%
%ADD12RoundRect,0.250000X-0.337500X-0.475000X0.337500X-0.475000X0.337500X0.475000X-0.337500X0.475000X0*%
%ADD13RoundRect,0.250000X-0.450000X0.350000X-0.450000X-0.350000X0.450000X-0.350000X0.450000X0.350000X0*%
%ADD14RoundRect,0.250000X1.050000X0.550000X-1.050000X0.550000X-1.050000X-0.550000X1.050000X-0.550000X0*%
%ADD15R,0.550000X1.600000*%
%ADD16R,1.600000X0.550000*%
%ADD17R,4.500000X2.000000*%
%ADD18RoundRect,0.250000X-0.550000X1.050000X-0.550000X-1.050000X0.550000X-1.050000X0.550000X1.050000X0*%
%ADD19RoundRect,0.150000X0.150000X-0.825000X0.150000X0.825000X-0.150000X0.825000X-0.150000X-0.825000X0*%
%ADD20RoundRect,0.250000X-1.050000X-0.550000X1.050000X-0.550000X1.050000X0.550000X-1.050000X0.550000X0*%
G04 APERTURE END LIST*
D10*
%TO.C,C2*%
X210000000Y-110062500D03*
X210000000Y-112137500D03*
%TD*%
D11*
%TO.C,R9*%
X146000000Y-142500000D03*
X146000000Y-140500000D03*
%TD*%
%TO.C,R21*%
X251000000Y-142500000D03*
X251000000Y-140500000D03*
%TD*%
D10*
%TO.C,C9*%
X225000000Y-124962500D03*
X225000000Y-127037500D03*
%TD*%
D12*
%TO.C,C11*%
X199862500Y-114000000D03*
X201937500Y-114000000D03*
%TD*%
D13*
%TO.C,R33*%
X330000000Y-121000000D03*
X330000000Y-123000000D03*
%TD*%
D11*
%TO.C,R22*%
X259750000Y-142500000D03*
X259750000Y-140500000D03*
%TD*%
%TO.C,R16*%
X207500000Y-142500000D03*
X207500000Y-140500000D03*
%TD*%
%TO.C,R1*%
X77500000Y-142500000D03*
X77500000Y-140500000D03*
%TD*%
%TO.C,R3*%
X94500000Y-142500000D03*
X94500000Y-140500000D03*
%TD*%
%TO.C,R20*%
X242500000Y-142500000D03*
X242500000Y-140500000D03*
%TD*%
%TO.C,R18*%
X224500000Y-142500000D03*
X224500000Y-140500000D03*
%TD*%
%TO.C,R23*%
X268500000Y-142500000D03*
X268500000Y-140500000D03*
%TD*%
D14*
%TO.C,C14*%
X98600000Y-128700000D03*
X95000000Y-128700000D03*
%TD*%
D15*
%TO.C,U1*%
X198200000Y-116750000D03*
X199000000Y-116750000D03*
X199800000Y-116750000D03*
X200600000Y-116750000D03*
X201400000Y-116750000D03*
X202200000Y-116750000D03*
X203000000Y-116750000D03*
X203800000Y-116750000D03*
D16*
X205250000Y-118200000D03*
X205250000Y-119000000D03*
X205250000Y-119800000D03*
X205250000Y-120600000D03*
X205250000Y-121400000D03*
X205250000Y-122200000D03*
X205250000Y-123000000D03*
X205250000Y-123800000D03*
D15*
X203800000Y-125250000D03*
X203000000Y-125250000D03*
X202200000Y-125250000D03*
X201400000Y-125250000D03*
X200600000Y-125250000D03*
X199800000Y-125250000D03*
X199000000Y-125250000D03*
X198200000Y-125250000D03*
D16*
X196750000Y-123800000D03*
X196750000Y-123000000D03*
X196750000Y-122200000D03*
X196750000Y-121400000D03*
X196750000Y-120600000D03*
X196750000Y-119800000D03*
X196750000Y-119000000D03*
X196750000Y-118200000D03*
%TD*%
D10*
%TO.C,C13*%
X326496750Y-120962500D03*
X326496750Y-123037500D03*
%TD*%
D11*
%TO.C,R27*%
X304000000Y-142500000D03*
X304000000Y-140500000D03*
%TD*%
%TO.C,R25*%
X287000000Y-142500000D03*
X287000000Y-140500000D03*
%TD*%
%TO.C,R5*%
X111000000Y-142500000D03*
X111000000Y-140500000D03*
%TD*%
%TO.C,R24*%
X277000000Y-142500000D03*
X277000000Y-140500000D03*
%TD*%
D10*
%TO.C,C8*%
X156000000Y-124962500D03*
X156000000Y-127037500D03*
%TD*%
D11*
%TO.C,R6*%
X119500000Y-142500000D03*
X119500000Y-140500000D03*
%TD*%
%TO.C,R17*%
X215900000Y-142500000D03*
X215900000Y-140500000D03*
%TD*%
D14*
%TO.C,C3*%
X324645000Y-131975000D03*
X321045000Y-131975000D03*
%TD*%
D11*
%TO.C,R7*%
X128000000Y-142500000D03*
X128000000Y-140500000D03*
%TD*%
%TO.C,R2*%
X85500000Y-142500000D03*
X85500000Y-140500000D03*
%TD*%
D17*
%TO.C,Y1*%
X196750000Y-110100000D03*
X205250000Y-110100000D03*
%TD*%
D11*
%TO.C,R29*%
X320500000Y-142500000D03*
X320500000Y-140500000D03*
%TD*%
%TO.C,R30*%
X329500000Y-142500000D03*
X329500000Y-140500000D03*
%TD*%
%TO.C,R10*%
X155000000Y-142500000D03*
X155000000Y-140500000D03*
%TD*%
D18*
%TO.C,C6*%
X309500000Y-122700000D03*
X309500000Y-126300000D03*
%TD*%
D11*
%TO.C,R13*%
X182000000Y-142500000D03*
X182000000Y-140500000D03*
%TD*%
%TO.C,R19*%
X232500000Y-142500000D03*
X232500000Y-140500000D03*
%TD*%
D19*
%TO.C,U6*%
X323290000Y-126450000D03*
X322020000Y-126450000D03*
X320750000Y-126450000D03*
X319480000Y-126450000D03*
X318210000Y-126450000D03*
X316940000Y-126450000D03*
X315670000Y-126450000D03*
X314400000Y-126450000D03*
X314400000Y-121500000D03*
X315670000Y-121500000D03*
X316940000Y-121500000D03*
X318210000Y-121500000D03*
X319480000Y-121500000D03*
X320750000Y-121500000D03*
X322020000Y-121500000D03*
X323290000Y-121500000D03*
%TD*%
D11*
%TO.C,R11*%
X163500000Y-142500000D03*
X163500000Y-140500000D03*
%TD*%
D10*
%TO.C,C7*%
X109000000Y-124962500D03*
X109000000Y-127037500D03*
%TD*%
%TO.C,C1*%
X192000000Y-110062500D03*
X192000000Y-112137500D03*
%TD*%
D11*
%TO.C,R26*%
X295500000Y-142500000D03*
X295500000Y-140500000D03*
%TD*%
%TO.C,R14*%
X190500000Y-142500000D03*
X190500000Y-140500000D03*
%TD*%
D14*
%TO.C,C4*%
X316645000Y-131975000D03*
X313045000Y-131975000D03*
%TD*%
D11*
%TO.C,R4*%
X102500000Y-142500000D03*
X102500000Y-140500000D03*
%TD*%
%TO.C,R12*%
X172500000Y-142500000D03*
X172500000Y-140500000D03*
%TD*%
%TO.C,R28*%
X312500000Y-142500000D03*
X312500000Y-140500000D03*
%TD*%
%TO.C,R15*%
X199200000Y-142500000D03*
X199200000Y-140500000D03*
%TD*%
%TO.C,R31*%
X337500000Y-142500000D03*
X337500000Y-140500000D03*
%TD*%
%TO.C,R8*%
X137700000Y-142500000D03*
X137700000Y-140500000D03*
%TD*%
%TO.C,R32*%
X349500000Y-142500000D03*
X349500000Y-140500000D03*
%TD*%
D10*
%TO.C,C10*%
X296000000Y-124962500D03*
X296000000Y-127037500D03*
%TD*%
D20*
%TO.C,C5*%
X326200000Y-127000000D03*
X329800000Y-127000000D03*
%TD*%
M02*
